<?xml version="1.0" standalone="no"?>
<!DOCTYPE svg PUBLIC "-//W3C//DTD SVG 1.1//EN" "http://www.w3.org/Graphics/SVG/1.1/DTD/svg11.dtd" >
<svg xmlns="http://www.w3.org/2000/svg" xmlns:xlink="http://www.w3.org/1999/xlink" version="1.1">
<metadata></metadata>
<defs>
<font id="sharp_sanssemibold" horiz-adv-x="976" >
<font-face units-per-em="2048" ascent="1638" descent="-410" />
<missing-glyph horiz-adv-x="491" />
<glyph horiz-adv-x="0" />
<glyph unicode="&#xd;" horiz-adv-x="491" />
<glyph horiz-adv-x="0" />
<glyph horiz-adv-x="0" />
<glyph unicode=" "  horiz-adv-x="491" />
<glyph unicode="&#x09;" horiz-adv-x="491" />
<glyph unicode="&#xa0;" horiz-adv-x="491" />
<glyph unicode="!" horiz-adv-x="499" d="M94 123q0 68 44 113t112 45q70 0 114 -45.5t44 -112.5q0 -68 -44.5 -113t-113.5 -45q-70 0 -113 45t-43 113zM141 1255v240h219v-240q0 -102 -4 -210.5t-10 -214t-15 -204t-20 -180.5h-121q-10 82 -19 180.5t-15 204t-10.5 214t-4.5 210.5z" />
<glyph unicode="&#x22;" horiz-adv-x="681" d="M117 1323v172h180v-172q0 -31 -7 -74t-16.5 -87t-19.5 -82t-16 -56h-64q-6 18 -16.5 56t-19.5 82t-15 87t-6 74zM387 1323v172h180v-172q0 -31 -7 -74t-16 -87t-19.5 -82t-16.5 -56h-64q-6 18 -16 56t-19.5 82t-15.5 87t-6 74z" />
<glyph unicode="#" horiz-adv-x="1714" d="M92 350v213h346v387h-346v213h346v332h221v-332h388v332h223v-332h352v-213h-352v-387h352v-213h-352v-350h-223v350h-388v-350h-221v350h-346zM659 563h388v387h-388v-387z" />
<glyph unicode="$" horiz-adv-x="1189" d="M53 252l197 154q45 -78 109.5 -129.5t142.5 -73.5v497q-72 23 -140.5 53.5t-123 77t-88 114t-33.5 163.5q0 76 27.5 142.5t78.5 118.5t121 88t154 50v213h217v-215q123 -18 210 -72.5t156 -136.5l-182 -137q-35 53 -82 91t-106 55v-445q74 -25 145.5 -57.5t128.5 -82.5 t93 -121t36 -171q0 -78 -26.5 -149.5t-78 -132t-126 -102.5t-168.5 -56v-234h-217v234q-143 23 -255 93.5t-190 170.5zM340 1114q0 -72 45 -114t117 -70v379q-74 -23 -118 -74t-44 -121zM711 203q84 25 131 86t47 139q0 80 -50.5 127t-127.5 78v-430z" />
<glyph unicode="%" horiz-adv-x="1761" d="M104 0l1285 1495h280l-1284 -1495h-281zM109 1159q0 74 27.5 139.5t76.5 113.5t113.5 76t138.5 28t138.5 -28t113.5 -76t76.5 -113.5t27.5 -139.5t-27.5 -138.5t-76.5 -113.5t-113.5 -76.5t-138.5 -27.5t-138.5 27.5t-113.5 76.5t-76.5 113.5t-27.5 138.5zM297 1159 q0 -72 49 -122t119 -50t119 50t49 122q0 37 -13.5 67.5t-36 54.5t-53 37t-65.5 13t-65.5 -13t-53 -37t-36 -54.5t-13.5 -67.5zM952 336q0 74 28 138.5t76 113.5t113.5 76.5t139.5 27.5t138 -27.5t113.5 -76.5t77 -113.5t27.5 -138.5t-27.5 -139.5t-77 -114.5t-114 -77 t-137.5 -28q-74 0 -139.5 28t-113.5 77t-76 114.5t-28 139.5zM1141 336q0 -37 13 -67.5t35.5 -54.5t53.5 -37t66 -13t65.5 13t53 37t36 54.5t13.5 67.5q0 72 -49.5 121t-118.5 49q-70 0 -119 -49t-49 -121z" />
<glyph unicode="&#x26;" horiz-adv-x="1642" d="M100 383q0 82 31 148.5t81 121t114.5 98.5t132.5 83q-76 84 -115 159.5t-41 169.5q0 70 24.5 133.5t74 112.5t122 78t168.5 29q90 0 160 -28t117 -75t70.5 -107.5t23.5 -127.5q0 -63 -23.5 -115.5t-63.5 -98.5t-92.5 -85t-109.5 -74l262 -262l281 356h270l-395 -493 l424 -406h-316l-243 242q-129 -141 -245 -201.5t-253 -60.5q-102 0 -186 27.5t-144.5 79.5t-94.5 127t-34 169zM324 399q0 -53 19 -93t52 -67.5t77 -41t91 -13.5q84 0 167 44t177 153l-317 315q-55 -33 -103.5 -65.5t-84 -68.5t-57 -77t-21.5 -86zM518 1176q0 -66 27.5 -116 t97.5 -122q88 51 146.5 107.5t58.5 130.5q0 66 -43 111.5t-117 45.5q-78 0 -124 -45.5t-46 -111.5z" />
<glyph unicode="'" horiz-adv-x="413" d="M117 1323v172h180v-172q0 -31 -7 -74t-16.5 -87t-19.5 -82t-16 -56h-64q-6 18 -16.5 56t-19.5 82t-15 87t-6 74z" />
<glyph unicode="(" horiz-adv-x="878" d="M92 512q0 180 42 328.5t116 271.5t175 225.5t222 190.5l150 -164q-102 -72 -188.5 -157t-150 -189.5t-98 -229t-34.5 -274.5q0 -145 33.5 -269t95 -228.5t149.5 -191.5t199 -159l-141 -180q-123 84 -226.5 187.5t-180.5 230.5t-120 278.5t-43 329.5z" />
<glyph unicode=")" horiz-adv-x="878" d="M76 -338q111 72 198.5 159t149 191.5t95.5 228.5t34 269q0 150 -35 274.5t-98.5 229t-149.5 190.5t-188 156l149 166q119 -88 221.5 -190.5t176 -226.5t115.5 -272.5t42 -326.5t-43 -329.5t-119.5 -278.5t-180 -230.5t-226.5 -187.5z" />
<glyph unicode="*" horiz-adv-x="901" d="M88 1038l254 97l-254 100l98 166l211 -174l-43 270h193l-43 -270l213 172l96 -168l-258 -96l258 -99l-100 -166l-209 172l43 -270h-193l41 270l-213 -172z" />
<glyph unicode="+" d="M111 653v189h286v282h185v-282h286v-189h-286v-286h-185v286h-286z" />
<glyph unicode="," horiz-adv-x="524" d="M82 113q0 78 47 123t121 45q86 0 135 -59.5t49 -145.5q0 -111 -68.5 -203t-177.5 -164l-75 86q94 66 142 129.5t48 134.5v4q-6 -43 -31.5 -62t-64.5 -19q-57 0 -91 38.5t-34 92.5z" />
<glyph unicode="-" d="M111 422v190h757v-190h-757z" />
<glyph unicode="." horiz-adv-x="471" d="M80 123q0 68 44 113t112 45q70 0 113.5 -45.5t43.5 -112.5q0 -68 -44 -113t-113 -45q-70 0 -113 45t-43 113z" />
<glyph unicode="/" horiz-adv-x="1058" d="M59 0l709 1495h236l-709 -1495h-236z" />
<glyph unicode="0" horiz-adv-x="1390" d="M115 721v70q0 195 44 332t121.5 225t183 128t230.5 40q127 0 234.5 -41t184.5 -129.5t120 -225.5t43 -329v-70q0 -207 -43 -348.5t-121 -228.5t-184.5 -125.5t-233.5 -38.5q-129 0 -236.5 39.5t-183 128t-117.5 229.5t-42 344zM336 721q0 -156 25.5 -257.5t71.5 -161.5 t111.5 -83.5t147.5 -23.5t148.5 24.5t113.5 85t73 161.5t26 255v70q0 154 -26 252t-73 156t-112.5 81t-145.5 23q-82 0 -148.5 -25t-113.5 -83t-72.5 -156.5t-25.5 -247.5v-70z" />
<glyph unicode="1" horiz-adv-x="796" d="M78 989v221h10q84 0 145.5 21.5t100.5 60.5t58.5 90.5t21.5 112.5h215v-1495h-223v1165q-39 -80 -117 -128t-187 -48h-24z" />
<glyph unicode="2" horiz-adv-x="1144" d="M74 1204q66 141 189.5 226.5t295.5 85.5q111 0 200 -33t150.5 -89.5t95 -133t33.5 -162.5q0 -88 -33.5 -159t-89 -131t-125 -111.5t-139.5 -100.5q-63 -43 -123.5 -87t-106.5 -90t-74 -96.5t-28 -109.5h721v-213h-946v213q0 92 35 168t92.5 140.5t129 119.5t143.5 104 q61 43 118.5 85t101.5 85t70.5 88.5t26.5 96.5q0 96 -65.5 158.5t-186.5 62.5q-104 0 -176 -59.5t-117 -155.5z" />
<glyph unicode="3" horiz-adv-x="1191" d="M37 240l186 141q61 -104 145.5 -151.5t200.5 -47.5q133 0 216 68.5t83 179.5q0 109 -80.5 172.5t-216.5 63.5h-172v206h158q133 0 202.5 66t69.5 164q0 92 -65.5 155.5t-198.5 63.5q-111 0 -183.5 -44t-121.5 -134l-188 108q80 123 201.5 194t293.5 71q113 0 202 -30 t150.5 -84t94.5 -129t33 -165q0 -111 -49.5 -195t-137.5 -137q106 -47 168 -134t62 -216q0 -96 -36 -177t-102.5 -141.5t-163 -94t-219.5 -33.5q-186 0 -312 64.5t-220 195.5z" />
<glyph unicode="4" horiz-adv-x="1267" d="M82 344v205l661 946h228v-948h219v-203h-219v-344h-219v344h-670zM324 547h428v610z" />
<glyph unicode="5" horiz-adv-x="1206" d="M98 258l207 125q41 -82 114 -139.5t187 -57.5q59 0 111.5 20.5t91.5 59.5t61.5 91.5t22.5 117.5q0 68 -22.5 123t-62.5 93t-92 59.5t-112 21.5q-109 0 -179.5 -49t-113.5 -131l-202 92l114 811h795v-209h-615l-57 -403q51 39 120 65.5t155 26.5q98 0 188 -32t158.5 -94.5 t109.5 -155.5t41 -218q0 -111 -39 -202t-106.5 -156.5t-161.5 -101t-205 -35.5q-92 0 -172 21.5t-144.5 59t-112.5 89t-79 108.5z" />
<glyph unicode="6" horiz-adv-x="1296" d="M115 711q0 197 50 347t143 251.5t225.5 154t293.5 52.5q78 0 152 -13.5t119 -29.5l-86 -211q-35 16 -90.5 28.5t-110.5 12.5q-213 0 -341 -125t-146 -385q59 100 158.5 154t228.5 54q100 0 189 -37.5t155.5 -105t104.5 -161t38 -203.5q0 -109 -41 -203t-111.5 -164 t-167.5 -108.5t-210 -38.5q-123 0 -225.5 45t-180.5 143q-35 43 -62.5 95t-46 117.5t-28.5 146.5t-10 184zM358 494q0 -66 24 -122.5t65.5 -97.5t97 -64.5t121.5 -23.5t123 23.5t99 64.5t66.5 97.5t24.5 122.5t-23.5 121t-64.5 96t-99.5 64.5t-125.5 23.5 q-66 0 -121.5 -22.5t-97 -63.5t-65.5 -97.5t-24 -121.5z" />
<glyph unicode="7" horiz-adv-x="1165" d="M94 1282v213h971v-192l-573 -1303h-238l580 1282h-740z" />
<glyph unicode="8" horiz-adv-x="1230" d="M82 436q0 117 57.5 208t159.5 151q-76 53 -117 131t-41 178q0 92 34 168t95.5 130t149.5 84t198 30q109 0 197 -30t151.5 -84t97.5 -130t34 -168q0 -100 -44 -178t-122 -131q100 -59 158.5 -150.5t58.5 -208.5q0 -102 -36 -186t-105.5 -144.5t-169 -93t-224.5 -32.5 q-129 0 -228 32.5t-166.5 93t-102.5 144.5t-35 186zM295 436q0 -53 20.5 -100t61.5 -82t100 -55.5t137 -20.5q76 0 136.5 20.5t101.5 55.5t62.5 82t21.5 100q0 51 -20.5 98.5t-61.5 82t-100.5 55t-137.5 20.5t-137 -20.5t-100 -56t-62.5 -82t-21.5 -97.5zM346 1104 q0 -94 64.5 -157.5t205.5 -63.5t208 63.5t67 157.5q0 92 -67.5 156.5t-202.5 64.5t-205 -64.5t-70 -156.5z" />
<glyph unicode="9" horiz-adv-x="1277" d="M98 1010q0 106 40 199.5t109.5 161t165 106.5t205.5 39q123 0 231.5 -53.5t182.5 -145.5q33 -41 57.5 -90t41 -110.5t24.5 -140.5t8 -179q0 -195 -44 -347.5t-128 -257t-205.5 -160t-277.5 -55.5q-125 0 -221.5 26t-171.5 73l131 207q53 -39 121.5 -63.5t134.5 -24.5 q410 0 444 499q-59 -90 -151.5 -137t-210.5 -47q-100 0 -188.5 37t-155 103.5t-104.5 158.5t-38 201zM319 1010q0 -63 24 -117.5t65 -94.5t97 -62.5t122 -22.5q63 0 118.5 22.5t96.5 61.5t65.5 93t24.5 120q0 63 -24.5 118.5t-67.5 95.5t-99.5 62.5t-119.5 22.5t-119 -22.5 t-95.5 -62.5t-63.5 -95.5t-24 -118.5z" />
<glyph unicode=":" horiz-adv-x="471" d="M80 123q0 68 44 113t112 45q70 0 113.5 -45.5t43.5 -112.5q0 -68 -44 -113t-113 -45q-70 0 -113 45t-43 113zM80 866q0 68 44 113t112 45q70 0 113.5 -45t43.5 -113t-44 -112.5t-113 -44.5q-70 0 -113 44.5t-43 112.5z" />
<glyph unicode=";" horiz-adv-x="524" d="M82 113q0 78 47 123t121 45q86 0 135 -59.5t49 -145.5q0 -111 -68.5 -203t-177.5 -164l-75 86q94 66 142 129.5t48 134.5v2q-14 -80 -96 -79q-57 0 -91 38.5t-34 92.5zM88 866q0 68 44 113t112 45q70 0 113.5 -45t43.5 -113t-44 -112.5t-113 -44.5q-70 0 -113 44.5 t-43 112.5z" />
<glyph unicode="&#x3c;" d="M111 653v189l757 278v-194l-526 -178l526 -183v-194z" />
<glyph unicode="=" d="M111 481v189h757v-189h-757zM111 819v189h757v-189h-757z" />
<glyph unicode="&#x3e;" d="M111 371v194l524 183l-524 178v194l757 -278v-189z" />
<glyph unicode="?" horiz-adv-x="1128" d="M100 1217q47 129 163 214t298 85q100 0 184 -29t145.5 -82t95.5 -128t34 -165q0 -96 -28.5 -159.5t-71.5 -107.5t-94.5 -78t-94.5 -74t-71.5 -95t-28.5 -139v-21h-199v21q0 115 26.5 190.5t67.5 126.5t87 86t87 69t68 76t27 107q0 92 -66.5 150.5t-171.5 58.5 q-100 0 -160.5 -52t-93.5 -130zM375 123q0 68 44 113t113 45q70 0 113 -45.5t43 -112.5q0 -68 -44 -113t-112 -45q-70 0 -113.5 45t-43.5 113z" />
<glyph unicode="@" horiz-adv-x="1712" d="M92 512q0 160 60.5 299t165 243.5t244.5 165t300 60.5q172 0 312.5 -58.5t238.5 -154.5t152.5 -221t54.5 -256q0 -88 -22.5 -166t-65.5 -136.5t-105.5 -92t-142.5 -33.5q-90 0 -149.5 32.5t-90.5 79.5q-39 -51 -104.5 -82.5t-157.5 -31.5q-63 0 -124.5 24.5t-107.5 71.5 t-71.5 115.5t-15.5 158.5q10 94 48 163t90 114t112.5 67.5t117.5 22.5q72 0 125.5 -23.5t87.5 -64.5q2 25 4.5 40t2.5 23v13h190l-41 -371q-18 -168 98 -168q66 0 102 66.5t36 175.5q0 96 -40 188t-115 164t-181.5 116t-237.5 44q-121 0 -227.5 -46t-185 -126t-123.5 -187.5 t-45 -228.5t44 -228.5t121.5 -187.5t183 -126t226.5 -46q129 0 236.5 48t187.5 134l139 -116q-98 -109 -244.5 -177.5t-318.5 -68.5q-160 0 -299 60.5t-242.5 164t-163 243.5t-59.5 300zM657 535q-6 -41 4.5 -78t33 -63.5t55 -42t73.5 -15.5q82 0 134.5 58.5t60.5 137.5 q8 78 -34 136.5t-122 58.5q-39 0 -74.5 -14.5t-63.5 -39t-46.5 -60t-20.5 -78.5z" />
<glyph unicode="A" horiz-adv-x="1470" d="M45 0l578 1495h225l577 -1495h-231l-121 319h-676l-118 -319h-234zM477 532h516l-258 685z" />
<glyph unicode="B" horiz-adv-x="1413" d="M152 0v1495h643q227 0 359 -108.5t132 -301.5q0 -104 -48 -185t-142 -128q100 -47 154.5 -133t54.5 -209q0 -209 -136.5 -319.5t-365.5 -110.5h-651zM371 205h432q133 0 205.5 62.5t72.5 166.5q0 106 -69.5 167t-225.5 61h-415v-457zM371 868h430q135 0 198.5 61.5 t63.5 155.5q0 98 -67.5 152.5t-200.5 54.5h-424v-424z" />
<glyph unicode="C" horiz-adv-x="1632" d="M109 748q0 164 59 304t163.5 243.5t245 162t300.5 58.5q106 0 203.5 -28t182.5 -77t155.5 -118.5t119.5 -153.5l-195 -121q-70 129 -188.5 205.5t-277.5 76.5q-117 0 -216.5 -43t-173 -117.5t-114.5 -176t-41 -215.5q0 -115 41 -214.5t113.5 -174t172 -117.5t215.5 -43 q174 0 296 86t188 221l201 -107q-49 -94 -119 -170.5t-157 -132t-189 -86t-217 -30.5q-166 0 -306.5 60t-244 164.5t-160.5 244t-57 299.5z" />
<glyph unicode="D" horiz-adv-x="1478" d="M152 0v1495h434q182 0 327.5 -57.5t247 -157.5t155.5 -236.5t54 -295.5q0 -160 -58.5 -297.5t-161.5 -236.5t-245.5 -156.5t-310.5 -57.5h-442zM375 207h196q129 0 234.5 41t181.5 113.5t117 172t41 214.5q0 117 -38 217t-111.5 171.5t-182 112.5t-250.5 41h-188v-1083z " />
<glyph unicode="E" horiz-adv-x="1261" d="M152 0v1495h978v-213h-759v-426h759v-213h-759v-428h759v-215h-978z" />
<glyph unicode="F" horiz-adv-x="1193" d="M152 0v1495h927v-213h-704v-426h704v-213h-704v-643h-223z" />
<glyph unicode="G" horiz-adv-x="1728" d="M109 748q0 160 58 300t160.5 243.5t245 164t310.5 60.5q211 0 371.5 -87.5t267.5 -234.5l-189 -131q-76 115 -189.5 177.5t-260.5 62.5q-121 0 -222.5 -44.5t-174 -120t-113.5 -177t-41 -213.5q0 -115 41 -215.5t114.5 -176t175 -118.5t222.5 -43q106 0 192 30.5 t150.5 86t105.5 131t60 165.5h-537v211h770v-80q0 -152 -50 -290t-145.5 -242.5t-233.5 -165.5t-312 -61q-170 0 -312.5 61t-245 165.5t-160.5 244t-58 297.5z" />
<glyph unicode="H" horiz-adv-x="1464" d="M152 0v1495h223v-637h717v637h221v-1495h-221v645h-717v-645h-223z" />
<glyph unicode="I" horiz-adv-x="557" d="M166 0v1495h225v-1495h-225z" />
<glyph unicode="J" horiz-adv-x="1024" d="M47 258l213 92q23 -72 76 -118t131 -46q92 0 141 61.5t49 164.5v1083h222v-1069q0 -211 -107.5 -328.5t-300.5 -117.5q-158 0 -269.5 76.5t-154.5 201.5z" />
<glyph unicode="K" horiz-adv-x="1368" d="M152 0v1495h221v-774l645 774h274l-475 -563l502 -932h-256l-410 772l-280 -332v-440h-221z" />
<glyph unicode="L" horiz-adv-x="1200" d="M152 0v1495h223v-1278h727v-217h-950z" />
<glyph unicode="M" horiz-adv-x="1726" d="M152 0v1495h221l487 -676l504 676h211v-1495h-219v1145l-500 -672l-483 657v-1130h-221z" />
<glyph unicode="N" horiz-adv-x="1513" d="M152 0v1495h243l750 -1135v1135h217v-1495h-227l-764 1155v-1155h-219z" />
<glyph unicode="O" horiz-adv-x="1751" d="M109 748q0 160 60 299t163.5 243.5t243 165t298.5 60.5q160 0 300.5 -60.5t244 -165t163.5 -244t60 -298.5q0 -160 -60 -299.5t-163.5 -244t-244 -164.5t-300.5 -60t-299 60t-242.5 164.5t-163.5 244t-60 299.5zM332 748q0 -115 42 -214.5t114.5 -175t171.5 -118.5 t214 -43t214.5 43t173 118.5t115.5 175t42 214.5q0 113 -42 214t-115.5 175.5t-173 118.5t-214.5 44t-214 -44t-171.5 -118.5t-114.5 -176t-42 -213.5z" />
<glyph unicode="P" horiz-adv-x="1394" d="M152 0v1495h581q119 0 219.5 -41t173 -111.5t112.5 -168t40 -207.5q0 -111 -40 -207t-112.5 -168t-174 -113t-222.5 -41h-354v-438h-223zM375 645h340q78 0 141.5 24.5t107.5 67.5t67.5 102.5t23.5 127.5q0 70 -23.5 129t-67.5 102t-107.5 67.5t-141.5 24.5h-340v-645z " />
<glyph unicode="Q" horiz-adv-x="1751" d="M109 748q0 160 60 299t163.5 243.5t243 165t298.5 60.5q160 0 300.5 -60.5t244 -165t163.5 -244t60 -298.5q0 -137 -46 -260t-130 -224l213 -264h-272l-96 121q-94 -68 -205 -104.5t-232 -36.5q-160 0 -299 60t-242.5 164.5t-163.5 244t-60 299.5zM332 748 q0 -115 42 -214.5t114.5 -175t171.5 -118.5t214 -43q172 0 306 92l-320 405h264l203 -256q43 66 67.5 145t24.5 165q0 113 -42 214t-115.5 175.5t-173 118.5t-214.5 44t-214 -44t-171.5 -118.5t-114.5 -176t-42 -213.5z" />
<glyph unicode="R" horiz-adv-x="1374" d="M152 0v1495h581q123 0 221.5 -38t169 -104.5t108.5 -157.5t38 -200q0 -141 -75 -262t-214 -180l317 -553h-254l-270 494h-401v-494h-221zM373 698h342q86 0 148.5 26t103.5 68t60.5 96t19.5 113q0 129 -83 208t-249 79h-342v-590z" />
<glyph unicode="S" horiz-adv-x="1306" d="M41 295l195 154q82 -133 194.5 -196t253.5 -63q152 0 228.5 66t76.5 168q0 68 -32.5 109.5t-87 69.5t-125 44.5t-146.5 32.5q-86 18 -172 41.5t-153.5 68t-109.5 115t-42 182.5q0 88 38 166t106.5 136.5t162.5 92.5t207 34q193 0 327 -67t242 -189l-184 -146 q-33 45 -70 81t-83 62.5t-102 41t-130 14.5q-152 0 -218.5 -62.5t-66.5 -160.5q0 -57 31 -93t82 -60t117.5 -39t140.5 -30q88 -18 177 -43.5t159.5 -74t116 -125t45.5 -199.5q0 -86 -35 -167t-102.5 -142.5t-166 -99t-225.5 -37.5q-233 0 -388 85t-261 230z" />
<glyph unicode="T" horiz-adv-x="1265" d="M98 1290v205h1069v-205h-424v-1290h-221v1290h-424z" />
<glyph unicode="U" horiz-adv-x="1447" d="M145 561v934h228v-946q0 -76 25.5 -141.5t71.5 -114.5t111.5 -77t143.5 -28t142.5 28t110.5 77t71.5 114.5t25.5 141.5v946h228v-934q0 -135 -43 -242.5t-120 -182.5t-183.5 -115.5t-233.5 -40.5t-233.5 40.5t-183.5 115.5t-119 182.5t-42 242.5z" />
<glyph unicode="V" horiz-adv-x="1470" d="M45 1495h236l454 -1206l453 1206h237l-577 -1495h-225z" />
<glyph unicode="W" horiz-adv-x="2142" d="M53 1495h234l313 -1155l369 1155h205l362 -1157l328 1157h225l-440 -1495h-217l-363 1163l-371 -1163h-223z" />
<glyph unicode="X" horiz-adv-x="1345" d="M57 0l484 760l-461 735h250l344 -547l342 547h250l-463 -729l485 -766h-252l-364 580l-363 -580h-252z" />
<glyph unicode="Y" horiz-adv-x="1353" d="M37 1495h250l391 -653l393 653h246l-531 -866v-629h-221v631z" />
<glyph unicode="Z" horiz-adv-x="1343" d="M109 0v205l856 1083h-826v207h1086v-203l-852 -1079h858v-213h-1122z" />
<glyph unicode="[" horiz-adv-x="778" d="M111 -471v1966h559v-211h-338v-1544h338v-211h-559z" />
<glyph unicode="\" horiz-adv-x="1058" d="M59 1495h236l709 -1495h-236z" />
<glyph unicode="]" horiz-adv-x="778" d="M111 -260h335v1544h-335v211h559v-1966h-559v211z" />
<glyph unicode="^" horiz-adv-x="1034" d="M195 1108l245 346h152l248 -346h-187l-137 197l-133 -197h-188z" />
<glyph unicode="_" horiz-adv-x="1079" d="M111 -20h860v-189h-860v189z" />
<glyph unicode="`" horiz-adv-x="1034" d="M262 1575h234l237 -340h-168z" />
<glyph unicode="a" horiz-adv-x="1243" d="M82 305q0 172 132 269.5t366 97.5h327v18q0 111 -69.5 180.5t-216.5 69.5q-111 0 -191 -48t-127 -130l-197 115q82 109 210 180t307 71q119 0 212 -31.5t156.5 -90t96 -140.5t32.5 -182v-684h-213v195q-66 -98 -180.5 -158t-253.5 -60q-96 0 -169 25t-122 69t-74.5 104.5 t-25.5 129.5zM307 324q0 -72 51 -113t162 -41q59 0 116.5 16.5t109 46t93.5 72.5t68 98v93h-313q-154 0 -220.5 -45t-66.5 -127z" />
<glyph unicode="b" horiz-adv-x="1359" d="M127 0v1618h219v-672q63 86 164.5 134t214.5 48q111 0 210 -40.5t176 -116.5t122 -181.5t45 -236.5q0 -129 -46 -235.5t-122 -182.5t-176.5 -117t-206.5 -41q-115 0 -217 48.5t-166 134.5v-160h-217zM332 555q0 -78 27.5 -146.5t76.5 -118.5t115.5 -80t144.5 -30 q76 0 141.5 29t114.5 80t77 119.5t28 146.5t-28 146.5t-77 118.5t-114.5 79t-141.5 29q-78 0 -144.5 -30t-115.5 -80t-76.5 -118.5t-27.5 -144.5z" />
<glyph unicode="c" horiz-adv-x="1263" d="M86 553q0 123 45 227.5t123 182t183.5 121.5t226.5 44q92 0 173 -24.5t148.5 -69.5t119.5 -107.5t83 -135.5l-199 -86q-43 102 -128 159.5t-197 57.5q-78 0 -143.5 -29t-114 -79t-76 -117.5t-27.5 -143.5t27.5 -143.5t77 -117.5t116 -79t144.5 -29q119 0 201.5 64.5 t123.5 161.5l201 -84q-66 -154 -200.5 -251.5t-327.5 -97.5q-123 0 -229.5 45.5t-184.5 123t-122 182t-44 225.5z" />
<glyph unicode="d" horiz-adv-x="1363" d="M86 553q0 131 45 236.5t122 181.5t178 116.5t212 40.5t212 -47t165 -129v666h217v-1618h-217v162q-66 -86 -167 -135.5t-212 -49.5q-109 0 -209 41t-177 117t-123 182.5t-46 235.5zM305 555q0 -78 27.5 -146.5t77 -119.5t116 -80t144.5 -29t144.5 30t114.5 80t75.5 118.5 t27.5 146.5q0 76 -27.5 144.5t-75.5 118.5t-114.5 80t-144.5 30t-144.5 -29t-116 -79t-77 -118.5t-27.5 -146.5z" />
<glyph unicode="e" horiz-adv-x="1316" d="M86 549q0 123 44 228.5t122 183t182.5 122.5t227.5 45t226 -42t179 -117.5t119 -179t43 -226.5v-92h-930q25 -135 123 -216t252 -81q117 0 195.5 49t127.5 129l183 -108q-80 -121 -203 -194t-303 -73q-133 0 -240.5 44.5t-185.5 121t-120 181t-42 225.5zM307 659h699 q-25 131 -116 203t-228 72q-133 0 -227.5 -77t-127.5 -198z" />
<glyph unicode="f" horiz-adv-x="815" d="M53 907v199h193v63q0 129 21.5 214t71.5 136.5t135 73t214 21.5h53v-205h-36q-80 0 -128.5 -8t-73 -35t-32.5 -74t-8 -125v-61h278v-199h-278v-907h-217v907h-193z" />
<glyph unicode="g" horiz-adv-x="1368" d="M86 553q0 131 45 236.5t122 181.5t178 116.5t212 40.5t212 -48t165 -134v160h221v-1018q0 -123 -44 -224.5t-121 -174t-180 -112.5t-222 -40q-201 0 -331 59.5t-220 172.5l178 145q66 -90 150 -132t219 -42q80 0 144.5 24.5t110.5 69.5t71.5 107.5t25.5 138.5v86 q-63 -88 -165.5 -138.5t-215.5 -50.5q-109 0 -209 41t-177 117t-123 182.5t-46 235.5zM305 555q0 -78 27.5 -146.5t77 -119.5t116 -80t144.5 -29t144.5 30t114.5 80t75.5 118.5t27.5 146.5q0 76 -27.5 144.5t-75.5 118.5t-114.5 80t-144.5 30t-144.5 -29t-116 -79 t-77 -118.5t-27.5 -146.5z" />
<glyph unicode="h" horiz-adv-x="1273" d="M127 0v1614h219v-656q59 78 148.5 124t201.5 46q104 0 189.5 -33.5t143.5 -96t90 -153.5t32 -204v-641h-225v625q0 141 -71 225t-212 84q-61 0 -115.5 -22.5t-94.5 -64.5t-62.5 -102.5t-22.5 -134.5v-610h-221z" />
<glyph unicode="i" horiz-adv-x="477" d="M82 1438q0 68 44 112.5t112 44.5q70 0 113.5 -45t43.5 -112q0 -68 -44 -113t-113 -45q-70 0 -113 45t-43 113zM127 0v1106h223v-1106h-223z" />
<glyph unicode="j" horiz-adv-x="477" d="M-115 -233q78 0 125 8t74 33.5t35 71.5t8 124v1102h223v-1104q0 -127 -21.5 -212t-72.5 -136t-133 -73.5t-205 -22.5h-33v209zM82 1438q0 68 44 112.5t112 44.5q70 0 113.5 -45t43.5 -112q0 -68 -44 -113t-113 -45q-70 0 -113 45t-43 113z" />
<glyph unicode="k" horiz-adv-x="1175" d="M127 0v1614h219v-1073l516 565h271l-428 -465l452 -641h-260l-352 502l-199 -215v-287h-219z" />
<glyph unicode="l" horiz-adv-x="477" d="M127 0v1614h223v-1614h-223z" />
<glyph unicode="m" horiz-adv-x="1939" d="M127 0v1106h219v-127q51 70 129 109.5t184 39.5q133 0 220.5 -51t132.5 -143q53 88 145 141t215 53q113 0 197 -32.5t139 -94t82 -147.5t27 -192v-662h-228v649q0 129 -59.5 207t-190.5 78q-119 0 -189.5 -76t-70.5 -229v-629h-223v664q0 127 -58.5 198.5t-185.5 71.5 q-123 0 -193.5 -79t-70.5 -237v-618h-221z" />
<glyph unicode="n" horiz-adv-x="1273" d="M127 0v1106h217v-154q57 80 146.5 128t205.5 48q104 0 189.5 -33.5t143.5 -96t90 -153.5t32 -204v-641h-223v625q0 141 -72 225t-211 84q-63 0 -117.5 -22.5t-94.5 -64.5t-62.5 -102.5t-22.5 -134.5v-610h-221z" />
<glyph unicode="o" horiz-adv-x="1323" d="M86 553q0 119 45 224.5t123 183t182.5 122.5t225.5 45q119 0 224 -45t183 -122.5t123 -183t45 -224.5q0 -121 -45 -225.5t-123 -182t-183 -123t-224 -45.5q-121 0 -225.5 45.5t-182.5 123t-123 182t-45 225.5zM307 553q0 -78 26.5 -144.5t75 -116.5t113 -79t140.5 -29 t140 29t112.5 79t76 116.5t27.5 144.5q0 76 -27.5 143.5t-76 117.5t-114 79t-138.5 29q-76 0 -140.5 -29t-113 -79t-75 -117.5t-26.5 -143.5z" />
<glyph unicode="p" horiz-adv-x="1357" d="M127 -442v1548h215v-164q63 86 164.5 136t216.5 50q111 0 210 -40.5t176 -116.5t122 -181.5t45 -236.5q0 -129 -46 -235.5t-123 -182.5t-177.5 -117t-206.5 -41q-117 0 -218.5 43t-162.5 127v-589h-215zM328 555q0 -78 27.5 -146.5t76.5 -118.5t115.5 -80t144.5 -30 q76 0 142.5 29t115.5 80t77 119.5t28 146.5t-28 146.5t-77 118.5t-115.5 79t-142.5 29q-78 0 -144.5 -30t-115.5 -80t-76.5 -118.5t-27.5 -144.5z" />
<glyph unicode="q" horiz-adv-x="1361" d="M86 553q0 131 45 236.5t122 181.5t178 116.5t212 40.5t212 -48t165 -134v160h215v-1548h-215v594q-63 -84 -162.5 -129.5t-216.5 -45.5q-109 0 -209 41t-177 117t-123 182.5t-46 235.5zM305 555q0 -78 27.5 -146.5t77 -119.5t116 -80t144.5 -29t144.5 30t114.5 80 t75.5 118.5t27.5 146.5q0 76 -27.5 144.5t-75.5 118.5t-114.5 80t-144.5 30t-144.5 -29t-116 -79t-77 -118.5t-27.5 -146.5z" />
<glyph unicode="r" horiz-adv-x="876" d="M125 0v1106h217v-193q35 104 115 156.5t186 52.5q57 0 105.5 -11t80.5 -32l-86 -213q-49 33 -139 33q-119 0 -188.5 -63.5t-69.5 -212.5v-623h-221z" />
<glyph unicode="s" horiz-adv-x="1050" d="M39 221l199 113q51 -78 122.5 -121t176.5 -43q109 0 164 46t55 110q0 37 -23.5 60.5t-62.5 38.5t-89.5 26.5t-105.5 23.5q-70 14 -138.5 35.5t-123.5 57.5t-89 92.5t-34 140.5q0 63 30 123.5t85 106.5t134 72.5t177 26.5q156 0 264.5 -54t180.5 -152l-191 -109 q-41 61 -102.5 96t-151.5 35q-102 0 -151.5 -41t-49.5 -100q0 -66 71 -92.5t198 -53.5q70 -14 139.5 -35.5t125.5 -58.5t92 -94t36 -143q0 -61 -27.5 -124t-83 -113t-140.5 -82t-200 -32q-176 0 -295.5 61.5t-191.5 182.5z" />
<glyph unicode="t" horiz-adv-x="868" d="M45 907v199h219v240l217 141v-381h310v-199h-310v-545q0 -92 40 -133t106 -41q63 0 112 43l105 -184q-47 -33 -105.5 -50t-128.5 -17q-166 0 -256 88t-90 292v547h-219z" />
<glyph unicode="u" horiz-adv-x="1271" d="M125 467v639h225v-625q0 -141 69.5 -224t211.5 -83q61 0 115.5 22.5t93.5 64.5t61.5 101.5t22.5 133.5v610h221v-1106h-217v152q-57 -80 -146 -127.5t-200 -47.5q-221 0 -339 130.5t-118 359.5z" />
<glyph unicode="v" horiz-adv-x="1185" d="M39 1106h233l318 -832l330 832h229l-459 -1106h-217z" />
<glyph unicode="w" horiz-adv-x="1890" d="M49 1106h227l259 -805l301 805h215l297 -805l266 805h227l-385 -1106h-211l-305 811l-307 -811h-217z" />
<glyph unicode="x" horiz-adv-x="1196" d="M33 0l426 561l-408 545h266l279 -377l281 377h262l-408 -543l432 -563h-272l-297 393l-291 -393h-270z" />
<glyph unicode="y" horiz-adv-x="1200" d="M-51 -322l131 187q29 -29 64.5 -46.5t82.5 -17.5q43 0 77 10.5t62.5 34t54 62.5t52.5 98l21 47l-455 1053h237l332 -793l318 793h235l-493 -1161q-41 -98 -85 -166t-96.5 -110t-115 -60.5t-142.5 -18.5q-78 0 -152.5 24t-127.5 64z" />
<glyph unicode="z" horiz-adv-x="1107" d="M84 0v203l670 704h-652v199h912v-203l-670 -704h680v-199h-940z" />
<glyph unicode="{" horiz-adv-x="833" d="M80 406v204q63 0 102 10.5t58.5 35t25.5 65.5t6 100v230q0 125 22.5 210t75 137t138.5 74.5t215 22.5h22v-203q-82 0 -131 -10t-76.5 -36.5t-36.5 -74t-9 -122.5v-230q0 -123 -33 -198.5t-115 -112.5q82 -37 115 -113t33 -198v-222q0 -76 9 -123t36.5 -73.5t77 -36.5 t130.5 -10v-203h-22q-129 0 -215 22.5t-138.5 74.5t-75 137t-22.5 210v222q0 59 -6 100t-25.5 65.5t-58.5 35t-102 10.5z" />
<glyph unicode="|" horiz-adv-x="460" d="M121 -471v1966h221v-1966h-221z" />
<glyph unicode="}" horiz-adv-x="833" d="M90 -266q80 0 130 9t78 35.5t37 74t9 122.5v222q0 123 32 198.5t113 112.5q-82 37 -113.5 112.5t-31.5 198.5v230q0 76 -9 123t-37 73.5t-78 35.5t-130 9v205h23q129 0 215 -22.5t138 -74.5t74.5 -137t22.5 -210v-230q0 -59 6 -100t25.5 -65.5t57.5 -35t104 -10.5v-204 q-66 0 -104 -10.5t-57.5 -35t-25.5 -65.5t-6 -100v-222q0 -125 -22.5 -210t-74.5 -137t-138 -74.5t-215 -22.5h-23v205z" />
<glyph unicode="~" horiz-adv-x="1007" d="M156 1163q2 117 56 187.5t150 70.5q51 0 88 -16t70 -35q29 -18 56.5 -34.5t56.5 -16.5q63 0 65 92h144q0 -117 -52.5 -187.5t-154.5 -70.5q-59 0 -101 21.5t-77 42.5q-25 16 -47.5 26t-47.5 10q-59 0 -61 -90h-145z" />
<glyph unicode="&#xa1;" horiz-adv-x="499" d="M92 901q0 68 44 113t114 45t113 -45t43 -113t-44 -113t-112 -45q-70 0 -114 45.5t-44 112.5zM139 -231q0 102 4 210.5t11.5 214t16.5 203t19 181.5h121q10 -84 19.5 -181.5t15.5 -203t9 -214t3 -210.5v-240h-219v240z" />
<glyph unicode="&#xa2;" horiz-adv-x="1193" d="M90 512q0 98 31 184t86 154t131 115t166 65v260h223v-256q135 -25 234.5 -105.5t148.5 -199.5l-197 -84q-39 90 -113.5 142.5t-176.5 52.5q-68 0 -125.5 -26t-100.5 -70t-67.5 -104t-24.5 -128q0 -70 24.5 -129t67.5 -103t101.5 -69t126.5 -25q104 0 179 56.5t109 142.5 l199 -84q-53 -121 -151.5 -204t-233.5 -107v-256h-223v258q-92 18 -168 66t-130 117t-85 155t-31 182z" />
<glyph unicode="&#xa3;" horiz-adv-x="1460" d="M92 211q0 100 66.5 167.5t189.5 67.5q66 0 123 -21.5t109 -53.5v2q0 72 -35 139.5t-80 142.5h-303v179h209q-25 57 -39.5 120.5t-14.5 139.5q0 94 34 171.5t94.5 133t144.5 86.5t184 31q172 0 284.5 -72t168.5 -187l-199 -96q-35 74 -96.5 118t-155.5 44 q-104 0 -168.5 -63.5t-64.5 -161.5q0 -72 20.5 -137.5t50.5 -126.5h379v-179h-288q27 -59 45 -117.5t18 -123.5q0 -88 -25 -164q51 -39 101.5 -65.5t105.5 -26.5q92 0 132 48t40 165v69h228v-98q0 -172 -83 -267t-272 -95q-94 0 -172 39.5t-149 93.5q-49 -61 -120 -98.5 t-165 -37.5q-156 0 -226.5 64.5t-70.5 169.5zM274 209q0 -35 30 -58.5t83 -23.5q47 0 85 23.5t65 64.5q-43 31 -86 51.5t-84 20.5q-47 0 -70 -21.5t-23 -56.5z" />
<glyph unicode="&#xa4;" horiz-adv-x="1624" d="M147 1284l152 146l231 -242q61 41 135 63.5t156 22.5q80 0 153 -21.5t134 -62.5l219 225l150 -147l-217 -224q43 -66 67.5 -141.5t24.5 -161.5t-24.5 -163.5t-72.5 -143.5l220 -225l-150 -146l-221 226q-127 -80 -283 -80q-84 0 -157.5 23.5t-137.5 64.5l-225 -234 l-149 148l227 233q-41 63 -64.5 138t-23.5 159t23.5 159t64.5 138zM508 741q0 -68 23.5 -127t65.5 -104t99 -70.5t125 -25.5q66 0 123 25.5t100 70.5t68 104.5t25 126.5q0 68 -25 127.5t-68 104.5t-100 70.5t-123 25.5q-68 0 -125 -25.5t-99 -70.5t-65.5 -104.5 t-23.5 -127.5z" />
<glyph unicode="&#xa5;" horiz-adv-x="1359" d="M84 1495h250l348 -522l348 522h248l-487 -711h329v-180h-329v-190h329v-181h-329v-233h-222v233h-329v181h329v190h-329v180h329v4z" />
<glyph unicode="&#xa6;" horiz-adv-x="503" d="M121 389h221v-860h-221v860zM121 635v860h221v-860h-221z" />
<glyph unicode="&#xa7;" horiz-adv-x="1247" d="M94 766q0 84 51.5 149.5t133.5 96.5q-88 76 -89 192q0 68 29 126.5t83 99t132 64.5t176 22q98 0 178 -25t137.5 -65t93.5 -93t48 -108l-211 -56q-12 76 -72.5 125t-177.5 49q-92 0 -149.5 -32.5t-57.5 -98.5q0 -35 22.5 -58.5t64.5 -41.5t100.5 -34.5t130.5 -33.5 q100 -25 180 -51t136.5 -63t86 -85t29.5 -114q0 -82 -48 -145.5t-126 -93.5q45 -35 67.5 -81t22.5 -108q0 -72 -33 -131t-91 -102t-141.5 -67.5t-181.5 -22.5q-104 0 -189 26.5t-147.5 71.5t-101.5 101.5t-51 115.5l221 57q14 -80 87 -135t196 -55q92 0 154.5 32.5 t62.5 98.5q0 35 -23.5 57.5t-66.5 40t-102.5 30.5t-131.5 30q-100 25 -180 51t-136 63t-86 85t-30 116zM311 793q0 -68 90 -104t246 -71q43 -10 84 -20t76 -23q63 18 94 53.5t31 76.5q0 63 -90 100t-246 72q-43 10 -82 20t-74 25q-61 -12 -95 -48t-34 -81z" />
<glyph unicode="&#xa8;" horiz-adv-x="1040" d="M164 1366q0 61 39 100t100 39t100 -39t39 -100t-38.5 -100t-100.5 -39q-63 0 -101 39t-38 100zM588 1366q0 61 40 100t99 39q61 0 101 -39t40 -100t-40 -100t-101 -39t-100 39t-39 100z" />
<glyph unicode="&#xa9;" horiz-adv-x="1714" d="M92 748q0 160 60.5 299t164 243.5t242.5 165t299 60.5t299 -60.5t242.5 -165t164 -244t60.5 -298.5q0 -160 -60.5 -299.5t-164 -244t-242.5 -164.5t-299 -60t-299 60t-242.5 164.5t-164 244t-60.5 299.5zM281 748q0 -121 44 -228.5t120.5 -187.5t183 -126t229.5 -46 t228.5 46t183.5 126t123 187.5t45 228.5t-45 228t-123 187t-183.5 127t-228.5 47t-229.5 -47t-183 -127t-120.5 -187.5t-44 -227.5zM455 748q0 86 30.5 160.5t86 130t131 88t165.5 32.5q123 0 218.5 -61.5t142.5 -153.5q-41 -18 -74 -34.5t-55 -28.5q-27 -14 -47 -27 q-18 47 -66.5 83t-120.5 36q-47 0 -87 -17.5t-70.5 -48t-48 -71.5t-17.5 -88t17.5 -88.5t48 -72t70.5 -48t87 -17.5q72 0 122 37t69 88l180 -76q-47 -100 -144.5 -166.5t-224.5 -66.5q-90 0 -165.5 31.5t-131 87t-86 130.5t-30.5 161z" />
<glyph unicode="&#xaa;" horiz-adv-x="802" d="M92 1067q0 92 70.5 146.5t195.5 54.5h179v4q0 47 -30 71.5t-104 24.5q-53 0 -91 -20.5t-66 -63.5l-137 86q43 59 118.5 98t178.5 39q133 0 209.5 -64.5t76.5 -172.5v-367h-155v101q-33 -53 -95.5 -83t-140.5 -30q-98 0 -153.5 50t-55.5 126zM254 1079q0 -31 24.5 -45 t59.5 -14q55 0 111.5 24.5t85.5 79.5v23h-168q-59 0 -86 -16.5t-27 -51.5z" />
<glyph unicode="&#xab;" horiz-adv-x="1005" d="M133 455v127l354 233v-153l-219 -144l219 -145v-152zM518 455v127l354 233v-153l-219 -144l219 -145v-152z" />
<glyph unicode="&#xac;" horiz-adv-x="1275" d="M78 856v213h1106v-704h-221v491h-885z" />
<glyph unicode="&#xad;" d="M111 422v190h757v-190h-757z" />
<glyph unicode="&#xae;" horiz-adv-x="1714" d="M92 512q0 160 60.5 299t164 243.5t242.5 165t299 60.5t299 -60.5t242.5 -165t164 -243.5t60.5 -299t-60.5 -299t-164 -243.5t-242.5 -165t-299 -60.5t-299 60.5t-242.5 165t-164 243.5t-60.5 299zM281 512q0 -121 44 -228.5t120.5 -187.5t183 -127t229.5 -47t228.5 47 t183.5 127t123 187.5t45 228.5t-45 228.5t-123 187.5t-183.5 127t-228.5 47t-229.5 -47t-183 -127t-120.5 -187.5t-44 -228.5zM557 139v766h328q76 0 137 -21.5t102 -58.5t63.5 -84t22.5 -98q0 -86 -40 -151.5t-123 -94.5l159 -258h-217l-207 371h88q59 0 100.5 31.5 t41.5 91.5q0 61 -42 85.5t-102 24.5h-118v-604h-193z" />
<glyph unicode="&#xaf;" horiz-adv-x="1034" d="M248 1266v157h540v-157h-540z" />
<glyph unicode="&#xb0;" horiz-adv-x="890" d="M131 1202q0 66 24.5 123t67.5 99t100.5 67t122.5 25q66 0 123.5 -25t99.5 -67t66.5 -99t24.5 -123t-24.5 -123t-66.5 -100t-99.5 -67.5t-123.5 -24.5t-123 24.5t-100 67.5t-67.5 100.5t-24.5 122.5zM317 1200q0 -53 38 -91t91 -38t91 38t38 91t-37.5 91t-91.5 38 q-53 0 -91 -38t-38 -91z" />
<glyph unicode="&#xb1;" d="M111 250v188h757v-188h-757zM111 868v189h286v284h185v-284h286v-189h-286v-284h-185v284h-286z" />
<glyph unicode="&#xb2;" horiz-adv-x="724" d="M53 1311q41 92 119 144t188 52q68 0 123.5 -19.5t94 -53t60 -79.5t21.5 -100q0 -57 -21.5 -101t-54 -79t-74.5 -62.5t-81 -51.5q-61 -37 -108.5 -72t-51.5 -80h389v-178h-587v153q0 59 20.5 106.5t54 84.5t75.5 66.5t83 54.5q66 41 114 76.5t48 82.5q0 37 -26.5 62.5 t-80.5 25.5q-53 0 -87.5 -34.5t-55.5 -81.5z" />
<glyph unicode="&#xb3;" horiz-adv-x="727" d="M33 750l149 124q33 -41 71 -62t91 -21q51 0 90 26.5t39 73.5t-40 71.5t-101 24.5h-88v170h86q61 0 94 27.5t33 68.5t-32 65.5t-95 24.5q-47 0 -79 -21.5t-58 -57.5l-154 106q49 59 124 98t171 39q147 0 231 -66.5t84 -180.5q0 -57 -25.5 -102.5t-72.5 -76.5 q55 -31 87 -79t32 -115q0 -57 -22.5 -106.5t-64.5 -85.5t-102.5 -56.5t-134.5 -20.5q-201 0 -313 132z" />
<glyph unicode="&#xb4;" horiz-adv-x="1034" d="M262 1235l238 340h233l-303 -340h-168z" />
<glyph unicode="&#xb5;" horiz-adv-x="1169" d="M111 -471v1495h223v-545q0 -145 64.5 -226t181.5 -81q55 0 102 20.5t83 57.5t55.5 90t19.5 121v563h219v-1024h-217v125q-49 -66 -125 -105.5t-172 -39.5q-66 0 -119 19t-96 50v-520h-219z" />
<glyph unicode="&#xb6;" horiz-adv-x="1335" d="M80 1057q0 92 33.5 172t93 139t140.5 93t175 34h695v-1495h-193v1290h-123v-1290h-190v618h-187q-96 0 -177 34t-140.5 93.5t-93 139.5t-33.5 172z" />
<glyph unicode="&#xb7;" horiz-adv-x="471" d="M88 516q0 66 41 107t107 41t106.5 -41t40.5 -107t-41 -106.5t-106 -40.5q-66 0 -107 40.5t-41 106.5z" />
<glyph unicode="&#xb8;" horiz-adv-x="1034" d="M188 -369l142 86q37 -29 72.5 -49t93.5 -20q51 0 88 20.5t37 50.5q0 66 -132 66h-94v256h154v-150q111 4 175 -44t64 -119q0 -47 -24.5 -86t-65.5 -68t-96.5 -44t-118.5 -15q-88 0 -162.5 31.5t-132.5 84.5z" />
<glyph unicode="&#xb9;" horiz-adv-x="497" d="M37 1124v187h6q92 0 130 50t38 134h182v-864h-184v598q-16 -49 -61.5 -77t-98.5 -28h-12z" />
<glyph unicode="&#xba;" horiz-adv-x="772" d="M80 1198q0 63 24.5 120.5t65.5 98.5t97.5 65.5t119.5 24.5t118.5 -24.5t97.5 -65.5t65.5 -98t23.5 -121q0 -63 -23.5 -119.5t-65.5 -97.5t-97.5 -65.5t-118.5 -24.5t-119.5 24.5t-97.5 65.5t-65.5 97.5t-24.5 119.5zM238 1198q0 -61 43 -106t106 -45t105.5 45t42.5 106 q0 66 -42 111t-106 45q-63 0 -106 -45t-43 -111z" />
<glyph unicode="&#xbb;" horiz-adv-x="1005" d="M133 221v154l221 143l-221 146v153l354 -235v-125zM518 221v154l221 143l-221 146v153l354 -235v-125z" />
<glyph unicode="&#xbc;" horiz-adv-x="1716" d="M119 1124v187h6q92 0 130 50t38 134h182v-864h-184v598q-16 -49 -61.5 -77t-98.5 -28h-12zM141 0l1080 1495h256l-1080 -1495h-256zM922 184v170l356 510h184v-514h125v-166h-125v-184h-180v184h-360zM1120 350h162v232z" />
<glyph unicode="&#xbd;" horiz-adv-x="1787" d="M119 1124v187h6q92 0 130 50t38 134h182v-864h-184v598q-16 -49 -61.5 -77t-98.5 -28h-12zM141 0l1080 1495h256l-1080 -1495h-256zM1055 680q41 92 118.5 144.5t188.5 52.5q68 0 123 -19.5t94 -53.5t60.5 -80t21.5 -99q0 -57 -21.5 -101.5t-54.5 -79t-75 -62.5t-80 -52 q-61 -37 -108.5 -72t-51.5 -80h389v-178h-588v154q0 59 20.5 106t54.5 84t76 66.5t83 54.5q66 41 113.5 77t47.5 83q0 37 -26.5 62.5t-79.5 25.5t-88 -35t-55 -82z" />
<glyph unicode="&#xbe;" horiz-adv-x="1906" d="M94 750l150 124q33 -41 70.5 -62t91.5 -21q51 0 90 26.5t39 73.5t-40 71.5t-102 24.5h-88v170h86q61 0 94 27.5t33 68.5t-31.5 65.5t-95.5 24.5q-47 0 -78.5 -21.5t-58.5 -57.5l-154 106q49 59 124 98t171 39q147 0 231.5 -66.5t84.5 -180.5q0 -57 -26 -102.5t-73 -76.5 q55 -31 87 -79t32 -115q0 -57 -22.5 -106.5t-64.5 -85.5t-102 -56.5t-134 -20.5q-201 0 -314 132zM332 0l1079 1495h256l-1079 -1495h-256zM1112 184v170l356 510h185v-514h125v-166h-125v-184h-180v184h-361zM1311 350h162v232z" />
<glyph unicode="&#xbf;" horiz-adv-x="1128" d="M109 -88q0 96 28.5 159.5t71.5 107.5t94 78t94 74t72 94t29 140v21h198v-21q0 -115 -26.5 -190.5t-67.5 -126.5t-87 -86t-87 -69t-67.5 -76t-26.5 -107q0 -92 66.5 -150.5t170.5 -58.5q100 0 161 52t93 130l203 -76q-47 -129 -163 -214t-298 -85q-100 0 -184 29 t-145.5 82t-95 128t-33.5 165zM440 901q0 68 44 113t112 45q70 0 114 -45t44 -113t-44 -113t-114 -45t-113 45.5t-43 112.5z" />
<glyph unicode="&#xc0;" horiz-adv-x="1470" d="M45 0l578 1495h225l577 -1495h-231l-121 319h-676l-118 -319h-234zM401 1964h234l237 -340h-167zM477 532h516l-258 685z" />
<glyph unicode="&#xc1;" horiz-adv-x="1470" d="M45 0l578 1495h225l577 -1495h-231l-121 319h-676l-118 -319h-234zM477 532h516l-258 685zM649 1624l238 340h233l-303 -340h-168z" />
<glyph unicode="&#xc2;" horiz-adv-x="1470" d="M45 0l578 1495h225l577 -1495h-231l-121 319h-676l-118 -319h-234zM408 1630l243 340h154l244 -340h-187l-135 193l-131 -193h-188zM477 532h516l-258 685z" />
<glyph unicode="&#xc3;" horiz-adv-x="1470" d="M45 0l578 1495h225l577 -1495h-231l-121 319h-676l-118 -319h-234zM387 1630q0 119 56.5 190.5t152.5 71.5q51 0 89 -16t73 -37q31 -20 59.5 -36.5t56.5 -16.5q68 0 68 98h145q0 -121 -53 -191.5t-157 -70.5q-59 0 -102.5 21.5t-80.5 44.5q-27 16 -48 27t-50 11 q-63 0 -64 -96h-145zM477 532h516l-258 685z" />
<glyph unicode="&#xc4;" horiz-adv-x="1470" d="M45 0l578 1495h225l577 -1495h-231l-121 319h-676l-118 -319h-234zM373 1755q0 61 39 100t100 39t100 -38.5t39 -100.5q0 -61 -39 -100t-100 -39q-63 0 -101 39t-38 100zM477 532h516l-258 685zM797 1755q0 61 40 100t99 39q61 0 101 -38.5t40 -100.5q0 -61 -40 -100 t-101 -39t-100 39t-39 100z" />
<glyph unicode="&#xc5;" horiz-adv-x="1470" d="M45 0l551 1425q-37 31 -58.5 75t-21.5 95q0 47 17.5 87t47 70t68.5 47.5t84 17.5q47 0 88 -17.5t71 -47.5t47 -70t17 -87q0 -53 -22.5 -97t-59.5 -73l551 -1425h-231l-121 319h-676l-118 -319h-234zM477 532h516l-258 685zM635 1591q0 -41 25.5 -66.5t64.5 -29.5h16 q41 4 69 31.5t28 68.5t-31 72t-74 31q-41 0 -69.5 -33t-28.5 -74z" />
<glyph unicode="&#xc6;" horiz-adv-x="2033" d="M47 0l694 1495h1162v-211h-877l104 -428h773v-211h-721l104 -432h617v-213h-797l-76 315h-598l-145 -315h-240zM526 520h455l-154 651z" />
<glyph unicode="&#xc7;" horiz-adv-x="1632" d="M109 748q0 164 59 304t163.5 243.5t245 162t300.5 58.5q106 0 203.5 -28t182.5 -77t155.5 -118.5t119.5 -153.5l-195 -121q-70 129 -188.5 205.5t-277.5 76.5q-117 0 -216.5 -43t-173 -117.5t-114.5 -176t-41 -215.5q0 -115 41 -214.5t113.5 -174t172 -117.5t215.5 -43 q174 0 296 86t188 221l201 -107q-92 -174 -251 -286.5t-366 -128.5v-103q111 4 175.5 -44t64.5 -120q0 -47 -24.5 -86t-65.5 -67.5t-96.5 -44t-118.5 -15.5q-88 0 -163 32t-132 85l141 86q37 -29 72.5 -49t93.5 -20q51 0 88 20t37 51q0 66 -131 66h-95v211 q-150 14 -274.5 79.5t-214.5 168t-140 234.5t-50 280z" />
<glyph unicode="&#xc8;" horiz-adv-x="1261" d="M152 0v1495h978v-213h-759v-426h759v-213h-759v-428h759v-215h-978zM317 1964h234l237 -340h-167z" />
<glyph unicode="&#xc9;" horiz-adv-x="1261" d="M152 0v1495h978v-213h-759v-426h759v-213h-759v-428h759v-215h-978zM524 1624l238 340h233l-303 -340h-168z" />
<glyph unicode="&#xca;" horiz-adv-x="1261" d="M152 0v1495h978v-213h-759v-426h759v-213h-759v-428h759v-215h-978zM324 1630l243 340h154l244 -340h-187l-135 193l-131 -193h-188z" />
<glyph unicode="&#xcb;" horiz-adv-x="1261" d="M152 0v1495h978v-213h-759v-426h759v-213h-759v-428h759v-215h-978zM289 1755q0 61 39 100t100 39t100 -38.5t39 -100.5q0 -61 -39 -100t-100 -39q-63 0 -101 39t-38 100zM713 1755q0 61 40 100t99 39q61 0 101 -38.5t40 -100.5q0 -61 -40 -100t-101 -39t-100 39t-39 100 z" />
<glyph unicode="&#xcc;" horiz-adv-x="557" d="M-53 1964h233l238 -340h-168zM166 0v1495h225v-1495h-225z" />
<glyph unicode="&#xcd;" horiz-adv-x="557" d="M154 1624l237 340h234l-303 -340h-168zM166 0v1495h225v-1495h-225z" />
<glyph unicode="&#xce;" horiz-adv-x="557" d="M-47 1630l244 340h153l244 -340h-186l-136 193l-131 -193h-188zM166 0v1495h225v-1495h-225z" />
<glyph unicode="&#xcf;" horiz-adv-x="557" d="M-82 1755q0 61 39 100t100 39t100.5 -38.5t39.5 -100.5q0 -61 -39 -100t-101 -39q-63 0 -101 39t-38 100zM166 0v1495h225v-1495h-225zM342 1755q0 61 40 100t99 39q61 0 101.5 -38.5t40.5 -100.5q0 -61 -40 -100t-102 -39q-61 0 -100 39t-39 100z" />
<glyph unicode="&#xd0;" horiz-adv-x="1523" d="M31 676v178h166v641h434q182 0 327.5 -57.5t247 -157.5t155.5 -236.5t54 -295.5q0 -160 -58.5 -297.5t-161.5 -236.5t-245.5 -156.5t-310.5 -57.5h-442v676h-166zM420 207h196q129 0 234.5 41t181.5 113.5t117 172t41 214.5q0 117 -38 217t-111.5 171.5t-182 112.5 t-250.5 41h-188v-436h366v-178h-366v-469z" />
<glyph unicode="&#xd1;" horiz-adv-x="1513" d="M152 0v1495h243l750 -1135v1135h217v-1495h-227l-764 1155v-1155h-219zM651 1602l238 340h233l-303 -340h-168z" />
<glyph unicode="&#xd2;" horiz-adv-x="1751" d="M109 748q0 160 60 299t163.5 243.5t243 165t298.5 60.5q160 0 300.5 -60.5t244 -165t163.5 -244t60 -298.5q0 -160 -60 -299.5t-163.5 -244t-244 -164.5t-300.5 -60t-299 60t-242.5 164.5t-163.5 244t-60 299.5zM332 748q0 -115 42 -214.5t114.5 -175t171.5 -118.5 t214 -43t214.5 43t173 118.5t115.5 175t42 214.5q0 113 -42 214t-115.5 175.5t-173 118.5t-214.5 44t-214 -44t-171.5 -118.5t-114.5 -176t-42 -213.5zM543 1974h233l238 -340h-168z" />
<glyph unicode="&#xd3;" horiz-adv-x="1751" d="M109 748q0 160 60 299t163.5 243.5t243 165t298.5 60.5q160 0 300.5 -60.5t244 -165t163.5 -244t60 -298.5q0 -160 -60 -299.5t-163.5 -244t-244 -164.5t-300.5 -60t-299 60t-242.5 164.5t-163.5 244t-60 299.5zM332 748q0 -115 42 -214.5t114.5 -175t171.5 -118.5 t214 -43t214.5 43t173 118.5t115.5 175t42 214.5q0 113 -42 214t-115.5 175.5t-173 118.5t-214.5 44t-214 -44t-171.5 -118.5t-114.5 -176t-42 -213.5zM528 1640q0 119 56.5 191t152.5 72q51 0 89 -16.5t73 -37.5q31 -20 59.5 -36.5t57.5 -16.5q68 0 67 98h146 q0 -121 -53.5 -191.5t-157.5 -70.5q-59 0 -102.5 21.5t-79.5 44.5q-27 16 -48.5 27.5t-50.5 11.5q-63 0 -63 -97h-146z" />
<glyph unicode="&#xd4;" horiz-adv-x="1751" d="M109 748q0 160 60 299t163.5 243.5t243 165t298.5 60.5q160 0 300.5 -60.5t244 -165t163.5 -244t60 -298.5q0 -160 -60 -299.5t-163.5 -244t-244 -164.5t-300.5 -60t-299 60t-242.5 164.5t-163.5 244t-60 299.5zM332 748q0 -115 42 -214.5t114.5 -175t171.5 -118.5 t214 -43t214.5 43t173 118.5t115.5 175t42 214.5q0 113 -42 214t-115.5 175.5t-173 118.5t-214.5 44t-214 -44t-171.5 -118.5t-114.5 -176t-42 -213.5zM549 1640l244 340h153l244 -340h-186l-136 193l-131 -193h-188z" />
<glyph unicode="&#xd5;" horiz-adv-x="1751" d="M109 748q0 160 60 299t163.5 243.5t243 165t298.5 60.5q160 0 300.5 -60.5t244 -165t163.5 -244t60 -298.5q0 -160 -60 -299.5t-163.5 -244t-244 -164.5t-300.5 -60t-299 60t-242.5 164.5t-163.5 244t-60 299.5zM332 748q0 -115 42 -214.5t114.5 -175t171.5 -118.5 t214 -43t214.5 43t173 118.5t115.5 175t42 214.5q0 113 -42 214t-115.5 175.5t-173 118.5t-214.5 44t-214 -44t-171.5 -118.5t-114.5 -176t-42 -213.5zM528 1640q0 119 56.5 191t152.5 72q51 0 89 -16.5t73 -37.5q31 -20 59.5 -36.5t57.5 -16.5q68 0 67 98h146 q0 -121 -53.5 -191.5t-157.5 -70.5q-59 0 -102.5 21.5t-79.5 44.5q-27 16 -48.5 27.5t-50.5 11.5q-63 0 -63 -97h-146z" />
<glyph unicode="&#xd6;" horiz-adv-x="1751" d="M109 748q0 160 60 299t163.5 243.5t243 165t298.5 60.5q160 0 300.5 -60.5t244 -165t163.5 -244t60 -298.5q0 -160 -60 -299.5t-163.5 -244t-244 -164.5t-300.5 -60t-299 60t-242.5 164.5t-163.5 244t-60 299.5zM332 748q0 -115 42 -214.5t114.5 -175t171.5 -118.5 t214 -43t214.5 43t173 118.5t115.5 175t42 214.5q0 113 -42 214t-115.5 175.5t-173 118.5t-214.5 44t-214 -44t-171.5 -118.5t-114.5 -176t-42 -213.5zM514 1765q0 61 39 100.5t100 39.5t100.5 -39t39.5 -101q0 -61 -39 -100t-101 -39q-63 0 -101 39t-38 100zM938 1765 q0 61 40 100.5t99 39.5q61 0 101.5 -39t40.5 -101q0 -61 -40 -100t-102 -39q-61 0 -100 39t-39 100z" />
<glyph unicode="&#xd7;" d="M127 514l231 231l-231 234l129 129l231 -234l234 234l131 -131l-234 -234l232 -229l-129 -129l-232 229l-231 -231z" />
<glyph unicode="&#xd8;" horiz-adv-x="1751" d="M109 748q0 160 60 299t163.5 243.5t243 165t298.5 60.5q117 0 222.5 -33t195.5 -92l160 200l113 -86l-162 -202q111 -104 175 -247t64 -308q0 -160 -60 -299.5t-163.5 -244t-244 -164.5t-300.5 -60q-119 0 -226 33.5t-199 92.5l-168 -210l-111 84l172 215 q-111 104 -172 246.5t-61 306.5zM332 748q0 -111 39 -208.5t108 -170.5l678 852q-127 80 -283 79q-115 0 -214 -44t-171.5 -118.5t-114.5 -175.5t-42 -214zM586 279q63 -39 135.5 -60.5t152.5 -21.5q115 0 214.5 43t173 118.5t115.5 175t42 214.5q0 111 -40 210t-111 175z " />
<glyph unicode="&#xd9;" horiz-adv-x="1447" d="M145 561v934h228v-946q0 -76 25.5 -141.5t71.5 -114.5t111.5 -77t143.5 -28t142.5 28t110.5 77t71.5 114.5t25.5 141.5v946h228v-934q0 -135 -43 -242.5t-120 -182.5t-183.5 -115.5t-233.5 -40.5t-233.5 40.5t-183.5 115.5t-119 182.5t-42 242.5zM389 1942h234l237 -340 h-168z" />
<glyph unicode="&#xda;" horiz-adv-x="1447" d="M145 561v934h228v-946q0 -76 25.5 -141.5t71.5 -114.5t111.5 -77t143.5 -28t142.5 28t110.5 77t71.5 114.5t25.5 141.5v946h228v-934q0 -135 -43 -242.5t-120 -182.5t-183.5 -115.5t-233.5 -40.5t-233.5 40.5t-183.5 115.5t-119 182.5t-42 242.5zM596 1602l238 340h233 l-303 -340h-168z" />
<glyph unicode="&#xdb;" horiz-adv-x="1447" d="M145 561v934h228v-946q0 -76 25.5 -141.5t71.5 -114.5t111.5 -77t143.5 -28t142.5 28t110.5 77t71.5 114.5t25.5 141.5v946h228v-934q0 -135 -43 -242.5t-120 -182.5t-183.5 -115.5t-233.5 -40.5t-233.5 40.5t-183.5 115.5t-119 182.5t-42 242.5zM395 1608l244 340h154 l243 -340h-186l-135 192l-131 -192h-189z" />
<glyph unicode="&#xdc;" horiz-adv-x="1447" d="M145 561v934h228v-946q0 -76 25.5 -141.5t71.5 -114.5t111.5 -77t143.5 -28t142.5 28t110.5 77t71.5 114.5t25.5 141.5v946h228v-934q0 -135 -43 -242.5t-120 -182.5t-183.5 -115.5t-233.5 -40.5t-233.5 40.5t-183.5 115.5t-119 182.5t-42 242.5zM360 1733q0 61 39 100 t101 39q61 0 100 -39t39 -100t-39 -100.5t-100 -39.5q-63 0 -101.5 39.5t-38.5 100.5zM784 1733q0 61 40 100t100 39q61 0 101 -39t40 -100t-40 -100.5t-101 -39.5t-100.5 39.5t-39.5 100.5z" />
<glyph unicode="&#xdd;" horiz-adv-x="1353" d="M37 1495h250l391 -653l393 653h246l-531 -866v-629h-221v631zM555 1604l238 340h233l-303 -340h-168z" />
<glyph unicode="&#xde;" horiz-adv-x="1286" d="M152 0v1495h223v-285h354q102 0 188.5 -33.5t147.5 -94t96 -142.5t35 -176q0 -96 -35 -177t-96 -141.5t-147.5 -94.5t-188.5 -34h-354v-317h-223zM375 522h340q119 0 188.5 68.5t69.5 173.5q0 104 -69.5 172t-188.5 68h-340v-482z" />
<glyph unicode="&#xdf;" horiz-adv-x="1200" d="M-111 -299q74 0 120 12.5t71.5 40t35 73.5t9.5 114v1210q-2 102 28.5 188t90 147.5t147.5 96.5t199 35q102 0 187 -33t145.5 -91t94.5 -138t34 -174q0 -117 -58.5 -205t-163.5 -133q61 -20 113.5 -57t91.5 -86.5t60.5 -111t21.5 -130.5q0 -104 -34.5 -191.5t-98 -152 t-155 -100t-201.5 -35.5q-47 0 -92.5 7t-79.5 23v201q12 -8 32.5 -13t45 -8.5t49 -5.5t43.5 -2q55 0 104 20.5t84 57.5t55.5 87t20.5 110q0 55 -22.5 105t-63.5 87t-99.5 58.5t-132.5 21.5h-45v205h45q115 0 189 69.5t74 180.5q0 51 -17.5 95t-50.5 78t-78 53.5t-100 19.5 q-111 0 -181.5 -65t-70.5 -189v-1235q0 -123 -20.5 -208t-67.5 -139.5t-127 -78t-197 -23.5h-35v209z" />
<glyph unicode="&#xe0;" horiz-adv-x="1243" d="M82 305q0 172 132 269.5t366 97.5h327v18q0 111 -69.5 180.5t-216.5 69.5q-111 0 -191 -48t-127 -130l-197 115q82 109 210 180t307 71q119 0 212 -31.5t156.5 -90t96 -140.5t32.5 -182v-684h-213v195q-66 -98 -180.5 -158t-253.5 -60q-96 0 -169 25t-122 69t-74.5 104.5 t-25.5 129.5zM299 1587h233l238 -340h-168zM307 324q0 -72 51 -113t162 -41q59 0 116.5 16.5t109 46t93.5 72.5t68 98v93h-313q-154 0 -220.5 -45t-66.5 -127z" />
<glyph unicode="&#xe1;" horiz-adv-x="1243" d="M82 305q0 172 132 269.5t366 97.5h327v18q0 111 -69.5 180.5t-216.5 69.5q-111 0 -191 -48t-127 -130l-197 115q82 109 210 180t307 71q119 0 212 -31.5t156.5 -90t96 -140.5t32.5 -182v-684h-213v195q-66 -98 -180.5 -158t-253.5 -60q-96 0 -169 25t-122 69t-74.5 104.5 t-25.5 129.5zM307 324q0 -72 51 -113t162 -41q59 0 116.5 16.5t109 46t93.5 72.5t68 98v93h-313q-154 0 -220.5 -45t-66.5 -127zM506 1247l237 340h234l-303 -340h-168z" />
<glyph unicode="&#xe2;" horiz-adv-x="1243" d="M82 305q0 172 132 269.5t366 97.5h327v18q0 111 -69.5 180.5t-216.5 69.5q-111 0 -191 -48t-127 -130l-197 115q82 109 210 180t307 71q119 0 212 -31.5t156.5 -90t96 -140.5t32.5 -182v-684h-213v195q-66 -98 -180.5 -158t-253.5 -60q-96 0 -169 25t-122 69t-74.5 104.5 t-25.5 129.5zM305 1253l244 340h153l244 -340h-186l-135 193l-131 -193h-189zM307 324q0 -72 51 -113t162 -41q59 0 116.5 16.5t109 46t93.5 72.5t68 98v93h-313q-154 0 -220.5 -45t-66.5 -127z" />
<glyph unicode="&#xe3;" horiz-adv-x="1243" d="M82 305q0 172 132 269.5t366 97.5h327v18q0 111 -69.5 180.5t-216.5 69.5q-111 0 -191 -48t-127 -130l-197 115q82 109 210 180t307 71q119 0 212 -31.5t156.5 -90t96 -140.5t32.5 -182v-684h-213v195q-66 -98 -180.5 -158t-253.5 -60q-96 0 -169 25t-122 69t-74.5 104.5 t-25.5 129.5zM285 1253q0 119 56 191t153 72q51 0 89 -16.5t72 -37.5q31 -20 59.5 -36.5t57.5 -16.5q68 0 68 98h145q0 -121 -53 -191.5t-158 -70.5q-59 0 -102 21.5t-80 44.5q-27 16 -48.5 27.5t-49.5 11.5q-63 0 -64 -97h-145zM307 324q0 -72 51 -113t162 -41 q59 0 116.5 16.5t109 46t93.5 72.5t68 98v93h-313q-154 0 -220.5 -45t-66.5 -127z" />
<glyph unicode="&#xe4;" horiz-adv-x="1243" d="M82 305q0 172 132 269.5t366 97.5h327v18q0 111 -69.5 180.5t-216.5 69.5q-111 0 -191 -48t-127 -130l-197 115q82 109 210 180t307 71q119 0 212 -31.5t156.5 -90t96 -140.5t32.5 -182v-684h-213v195q-66 -98 -180.5 -158t-253.5 -60q-96 0 -169 25t-122 69t-74.5 104.5 t-25.5 129.5zM270 1378q0 61 39 100.5t101 39.5q61 0 100 -39t39 -101q0 -61 -39 -100t-100 -39q-63 0 -101.5 39t-38.5 100zM307 324q0 -72 51 -113t162 -41q59 0 116.5 16.5t109 46t93.5 72.5t68 98v93h-313q-154 0 -220.5 -45t-66.5 -127zM694 1378q0 61 40 100.5 t100 39.5q61 0 101 -39t40 -101q0 -61 -40 -100t-101 -39t-100.5 39t-39.5 100z" />
<glyph unicode="&#xe5;" horiz-adv-x="1243" d="M82 305q0 172 132 269.5t366 97.5h327v18q0 111 -69.5 180.5t-216.5 69.5q-111 0 -191 -48t-127 -130l-197 115q82 109 210 180t307 71q119 0 212 -31.5t156.5 -90t96 -140.5t32.5 -182v-684h-213v195q-66 -98 -180.5 -158t-253.5 -60q-96 0 -169 25t-122 69t-74.5 104.5 t-25.5 129.5zM307 324q0 -72 51 -113t162 -41q59 0 116.5 16.5t109 46t93.5 72.5t68 98v93h-313q-154 0 -220.5 -45t-66.5 -127zM414 1475q0 47 17.5 87t47 69.5t68.5 47t84 17.5q47 0 88 -17.5t70.5 -47t47 -69.5t17.5 -87q0 -45 -17.5 -85t-47 -70t-70.5 -47.5t-88 -17.5 q-45 0 -84 17.5t-68.5 47.5t-47 70t-17.5 85zM532 1470q0 -41 29 -68.5t70 -27.5q43 0 73.5 30t30.5 71t-30.5 71.5t-73.5 30.5q-41 0 -70 -33t-29 -74z" />
<glyph unicode="&#xe6;" horiz-adv-x="2093" d="M68 305q0 176 131 267.5t360 91.5h338v51q0 98 -70.5 162.5t-210.5 64.5q-117 0 -191.5 -48t-109.5 -124l-209 88q66 117 193 193.5t322 76.5q154 0 255 -52t150 -144q80 92 192.5 144t243.5 52q125 0 228.5 -43t179.5 -119.5t118 -180t42 -226.5v-80h-930 q20 -135 115.5 -218t252.5 -83q111 0 193 49t131 135l186 -104q-84 -129 -207.5 -205t-304.5 -76q-166 0 -289.5 67t-195.5 179q-78 -113 -210 -179.5t-302 -66.5q-190 0 -295.5 90.5t-105.5 237.5zM297 324q0 -70 53.5 -112t159.5 -42q61 0 123.5 18.5t116 51t94.5 80 t61 106.5q-2 10 -3 23.5t-1 29.5h-338q-137 0 -201.5 -35.5t-64.5 -119.5zM1110 664h688q-27 125 -114 194.5t-222 69.5q-66 0 -122 -19.5t-102 -55.5t-79 -84t-49 -105z" />
<glyph unicode="&#xe7;" horiz-adv-x="1263" d="M86 553q0 123 45 227.5t123 182t183.5 121.5t226.5 44q92 0 173 -24.5t148.5 -69.5t119.5 -107.5t83 -135.5l-199 -86q-43 102 -128 159.5t-197 57.5q-78 0 -143.5 -29t-114 -79t-76 -117.5t-27.5 -143.5t27.5 -143.5t77 -117.5t116 -79t144.5 -29q119 0 201.5 64.5 t123.5 161.5l201 -84q-61 -141 -179 -234.5t-286 -109.5v-103q111 4 175.5 -44t64.5 -120q0 -47 -24.5 -86t-65.5 -67.5t-96.5 -44t-118.5 -15.5q-88 0 -163 32t-132 85l141 86q37 -29 72.5 -49.5t93.5 -20.5q51 0 88 20.5t37 51.5q0 66 -131 66h-95v211q-106 14 -196 64 t-154.5 126t-101.5 173t-37 206z" />
<glyph unicode="&#xe8;" horiz-adv-x="1316" d="M86 549q0 123 44 228.5t122 183t182.5 122.5t227.5 45t226 -42t179 -117.5t119 -179t43 -226.5v-92h-930q25 -135 123 -216t252 -81q117 0 195.5 49t127.5 129l183 -108q-80 -121 -203 -194t-303 -73q-133 0 -240.5 44.5t-185.5 121t-120 181t-42 225.5zM307 659h699 q-25 131 -116 203t-228 72q-133 0 -227.5 -77t-127.5 -198zM330 1587h233l238 -340h-168z" />
<glyph unicode="&#xe9;" horiz-adv-x="1316" d="M86 549q0 123 44 228.5t122 183t182.5 122.5t227.5 45t226 -42t179 -117.5t119 -179t43 -226.5v-92h-930q25 -135 123 -216t252 -81q117 0 195.5 49t127.5 129l183 -108q-80 -121 -203 -194t-303 -73q-133 0 -240.5 44.5t-185.5 121t-120 181t-42 225.5zM307 659h699 q-25 131 -116 203t-228 72q-133 0 -227.5 -77t-127.5 -198zM537 1247l237 340h234l-303 -340h-168z" />
<glyph unicode="&#xea;" horiz-adv-x="1316" d="M86 549q0 123 44 228.5t122 183t182.5 122.5t227.5 45t226 -42t179 -117.5t119 -179t43 -226.5v-92h-930q25 -135 123 -216t252 -81q117 0 195.5 49t127.5 129l183 -108q-80 -121 -203 -194t-303 -73q-133 0 -240.5 44.5t-185.5 121t-120 181t-42 225.5zM307 659h699 q-25 131 -116 203t-228 72q-133 0 -227.5 -77t-127.5 -198zM336 1253l244 340h153l244 -340h-186l-136 193l-131 -193h-188z" />
<glyph unicode="&#xeb;" horiz-adv-x="1316" d="M86 549q0 123 44 228.5t122 183t182.5 122.5t227.5 45t226 -42t179 -117.5t119 -179t43 -226.5v-92h-930q25 -135 123 -216t252 -81q117 0 195.5 49t127.5 129l183 -108q-80 -121 -203 -194t-303 -73q-133 0 -240.5 44.5t-185.5 121t-120 181t-42 225.5zM301 1378 q0 61 39 100.5t100 39.5t100.5 -39t39.5 -101q0 -61 -39 -100t-101 -39q-63 0 -101 39t-38 100zM307 659h699q-25 131 -116 203t-228 72q-133 0 -227.5 -77t-127.5 -198zM725 1378q0 61 40 100.5t99 39.5q61 0 101.5 -39t40.5 -101q0 -61 -40 -100t-102 -39q-61 0 -100 39 t-39 100z" />
<glyph unicode="&#xec;" horiz-adv-x="477" d="M-94 1575h233l238 -340h-168zM127 0v1106h223v-1106h-223z" />
<glyph unicode="&#xed;" horiz-adv-x="477" d="M127 0v1106h223v-1106h-223zM154 1255l237 340h234l-303 -340h-168z" />
<glyph unicode="&#xee;" horiz-adv-x="477" d="M-88 1241l244 340h153l244 -340h-186l-136 193l-131 -193h-188zM127 0v1106h223v-1106h-223z" />
<glyph unicode="&#xef;" horiz-adv-x="477" d="M-123 1366q0 61 39 100t100 39t100.5 -39t39.5 -100t-39 -100t-101 -39q-63 0 -101 39t-38 100zM127 0v1106h223v-1106h-223zM301 1366q0 61 40 100t99 39q61 0 101.5 -39t40.5 -100t-40 -100t-102 -39q-61 0 -100 39t-39 100z" />
<glyph unicode="&#xf0;" horiz-adv-x="1310" d="M90 541q0 119 42 218t116 172t171 113.5t208 40.5q88 0 151.5 -21.5t110.5 -57.5q-43 70 -102.5 139t-139.5 143l-172 -131l-86 98l158 121q-66 57 -144.5 114.5t-171.5 123.5h324q39 -31 75 -60.5t70 -60.5l168 129l86 -100l-157 -119q221 -219 320.5 -432t99.5 -424 q0 -119 -43.5 -221.5t-120 -179t-180 -120.5t-222.5 -44q-115 0 -216 42t-178 117.5t-122 177t-45 222.5zM309 541q0 -74 28 -137.5t75 -111.5t109 -75t132 -27t133.5 28t109.5 76t73.5 111.5t27.5 135.5t-26.5 135t-72.5 110.5t-108.5 75t-134.5 27.5q-70 0 -132 -26.5 t-110 -74t-76 -111t-28 -136.5z" />
<glyph unicode="&#xf1;" horiz-adv-x="1273" d="M127 0v1106h217v-154q57 80 146.5 128t205.5 48q104 0 189.5 -33.5t143.5 -96t90 -153.5t32 -204v-641h-223v625q0 141 -72 225t-211 84q-63 0 -117.5 -22.5t-94.5 -64.5t-62.5 -102.5t-22.5 -134.5v-610h-221zM303 1249q0 119 56.5 190.5t152.5 71.5q51 0 89 -16t73 -37 q31 -20 59.5 -36.5t57.5 -16.5q68 0 67 98h146q0 -121 -53.5 -191.5t-157.5 -70.5q-59 0 -102.5 21.5t-80.5 44.5q-27 16 -48 27.5t-50 11.5q-63 0 -63 -97h-146z" />
<glyph unicode="&#xf2;" horiz-adv-x="1323" d="M86 553q0 119 45 224.5t123 183t182.5 122.5t225.5 45q119 0 224 -45t183 -122.5t123 -183t45 -224.5q0 -121 -45 -225.5t-123 -182t-183 -123t-224 -45.5q-121 0 -225.5 45.5t-182.5 123t-123 182t-45 225.5zM307 553q0 -78 26.5 -144.5t75 -116.5t113 -79t140.5 -29 t140 29t112.5 79t76 116.5t27.5 144.5q0 76 -27.5 143.5t-76 117.5t-114 79t-138.5 29q-76 0 -140.5 -29t-113 -79t-75 -117.5t-26.5 -143.5zM330 1587h233l238 -340h-168z" />
<glyph unicode="&#xf3;" horiz-adv-x="1323" d="M86 553q0 119 45 224.5t123 183t182.5 122.5t225.5 45q119 0 224 -45t183 -122.5t123 -183t45 -224.5q0 -121 -45 -225.5t-123 -182t-183 -123t-224 -45.5q-121 0 -225.5 45.5t-182.5 123t-123 182t-45 225.5zM307 553q0 -78 26.5 -144.5t75 -116.5t113 -79t140.5 -29 t140 29t112.5 79t76 116.5t27.5 144.5q0 76 -27.5 143.5t-76 117.5t-114 79t-138.5 29q-76 0 -140.5 -29t-113 -79t-75 -117.5t-26.5 -143.5zM537 1247l237 340h234l-303 -340h-168z" />
<glyph unicode="&#xf4;" horiz-adv-x="1323" d="M86 553q0 119 45 224.5t123 183t182.5 122.5t225.5 45q119 0 224 -45t183 -122.5t123 -183t45 -224.5q0 -121 -45 -225.5t-123 -182t-183 -123t-224 -45.5q-121 0 -225.5 45.5t-182.5 123t-123 182t-45 225.5zM307 553q0 -78 26.5 -144.5t75 -116.5t113 -79t140.5 -29 t140 29t112.5 79t76 116.5t27.5 144.5q0 76 -27.5 143.5t-76 117.5t-114 79t-138.5 29q-76 0 -140.5 -29t-113 -79t-75 -117.5t-26.5 -143.5zM336 1253l244 340h153l244 -340h-186l-136 193l-131 -193h-188z" />
<glyph unicode="&#xf5;" horiz-adv-x="1323" d="M86 553q0 119 45 224.5t123 183t182.5 122.5t225.5 45q119 0 224 -45t183 -122.5t123 -183t45 -224.5q0 -121 -45 -225.5t-123 -182t-183 -123t-224 -45.5q-121 0 -225.5 45.5t-182.5 123t-123 182t-45 225.5zM307 553q0 -78 26.5 -144.5t75 -116.5t113 -79t140.5 -29 t140 29t112.5 79t76 116.5t27.5 144.5q0 76 -27.5 143.5t-76 117.5t-114 79t-138.5 29q-76 0 -140.5 -29t-113 -79t-75 -117.5t-26.5 -143.5zM315 1253q0 119 56.5 191t152.5 72q51 0 89 -16.5t73 -37.5q31 -20 59.5 -36.5t57.5 -16.5q68 0 67 98h146q0 -121 -53.5 -191.5 t-157.5 -70.5q-59 0 -102.5 21.5t-79.5 44.5q-27 16 -48.5 27.5t-50.5 11.5q-63 0 -63 -97h-146z" />
<glyph unicode="&#xf6;" horiz-adv-x="1323" d="M86 553q0 119 45 224.5t123 183t182.5 122.5t225.5 45q119 0 224 -45t183 -122.5t123 -183t45 -224.5q0 -121 -45 -225.5t-123 -182t-183 -123t-224 -45.5q-121 0 -225.5 45.5t-182.5 123t-123 182t-45 225.5zM301 1378q0 61 39 100.5t100 39.5t100.5 -39t39.5 -101 q0 -61 -39 -100t-101 -39q-63 0 -101 39t-38 100zM307 553q0 -78 26.5 -144.5t75 -116.5t113 -79t140.5 -29t140 29t112.5 79t76 116.5t27.5 144.5q0 76 -27.5 143.5t-76 117.5t-114 79t-138.5 29q-76 0 -140.5 -29t-113 -79t-75 -117.5t-26.5 -143.5zM725 1378 q0 61 40 100.5t99 39.5q61 0 101.5 -39t40.5 -101q0 -61 -40 -100t-102 -39q-61 0 -100 39t-39 100z" />
<glyph unicode="&#xf7;" d="M111 653v189h757v-189h-757zM365 422q0 55 34.5 90t87.5 35q55 0 91 -35t36 -90q0 -53 -35.5 -88t-91.5 -35q-55 0 -88.5 35t-33.5 88zM365 1069q0 55 34.5 90t87.5 35q55 0 91 -35t36 -90q0 -53 -35.5 -88t-91.5 -35q-55 0 -88.5 35t-33.5 88z" />
<glyph unicode="&#xf8;" horiz-adv-x="1323" d="M88 553q0 121 45 226.5t122 183t181.5 121.5t225.5 44q86 0 162.5 -23.5t144.5 -64.5l112 140l109 -82l-115 -144q76 -78 119 -180t43 -221q0 -121 -45 -225.5t-124 -182t-183.5 -123t-222.5 -45.5q-86 0 -163 23t-143 63l-120 -149l-111 86l123 152q-76 78 -118 180 t-42 221zM305 553q0 -68 20.5 -128t57.5 -108l453 560q-39 23 -83 36t-91 13q-76 0 -140.5 -30t-113 -80t-76 -118.5t-27.5 -144.5zM487 227q81 -45 175 -45q74 0 139 29t114.5 80t77 117.5t27.5 144.5q0 66 -21.5 126t-58.5 107z" />
<glyph unicode="&#xf9;" horiz-adv-x="1271" d="M125 467v639h225v-625q0 -141 69.5 -224t211.5 -83q61 0 115.5 22.5t93.5 64.5t61.5 101.5t22.5 133.5v610h221v-1106h-217v152q-57 -80 -146 -127.5t-200 -47.5q-221 0 -339 130.5t-118 359.5zM305 1552h234l237 -340h-168z" />
<glyph unicode="&#xfa;" horiz-adv-x="1271" d="M125 467v639h225v-625q0 -141 69.5 -224t211.5 -83q61 0 115.5 22.5t93.5 64.5t61.5 101.5t22.5 133.5v610h221v-1106h-217v152q-57 -80 -146 -127.5t-200 -47.5q-221 0 -339 130.5t-118 359.5zM512 1212l238 340h233l-303 -340h-168z" />
<glyph unicode="&#xfb;" horiz-adv-x="1271" d="M125 467v639h225v-625q0 -141 69.5 -224t211.5 -83q61 0 115.5 22.5t93.5 64.5t61.5 101.5t22.5 133.5v610h221v-1106h-217v152q-57 -80 -146 -127.5t-200 -47.5q-221 0 -339 130.5t-118 359.5zM311 1219l244 340h154l243 -340h-186l-135 192l-131 -192h-189z" />
<glyph unicode="&#xfc;" horiz-adv-x="1271" d="M125 467v639h225v-625q0 -141 69.5 -224t211.5 -83q61 0 115.5 22.5t93.5 64.5t61.5 101.5t22.5 133.5v610h221v-1106h-217v152q-57 -80 -146 -127.5t-200 -47.5q-221 0 -339 130.5t-118 359.5zM276 1343q0 61 39 100.5t101 39.5q61 0 100 -39t39 -101q0 -61 -39 -100 t-100 -39q-63 0 -101.5 39t-38.5 100zM700 1343q0 61 40 100.5t100 39.5q61 0 101 -39t40 -101q0 -61 -40 -100t-101 -39t-100.5 39t-39.5 100z" />
<glyph unicode="&#xfd;" horiz-adv-x="1200" d="M-51 -322l131 187q29 -29 64.5 -46.5t82.5 -17.5q43 0 77 10.5t62.5 34t54 62.5t52.5 98l21 47l-455 1053h237l332 -793l318 793h235l-493 -1161q-41 -98 -85 -166t-96.5 -110t-115 -60.5t-142.5 -18.5q-78 0 -152.5 24t-127.5 64zM477 1219l238 340h233l-303 -340h-168z " />
<glyph unicode="&#xfe;" horiz-adv-x="1357" d="M127 -508v2122h217v-676q61 84 160.5 137t224.5 53q109 0 208 -39.5t174 -114.5t120 -180.5t45 -236.5t-45 -238.5t-121 -183.5t-175.5 -117t-205.5 -41q-125 0 -225.5 52.5t-159.5 134.5v-672h-217zM336 555q0 -76 27.5 -144.5t76.5 -119.5t115.5 -81t142.5 -30 q80 0 145.5 30t114 81t75 119.5t26.5 146.5q0 76 -26.5 143.5t-74 118.5t-113 80t-145.5 29q-78 0 -144.5 -30t-115.5 -80t-76.5 -118.5t-27.5 -144.5z" />
<glyph unicode="&#xff;" horiz-adv-x="1200" d="M-51 -322l131 187q29 -29 64.5 -46.5t82.5 -17.5q43 0 77 10.5t62.5 34t54 62.5t52.5 98l21 47l-455 1053h237l332 -793l318 793h235l-493 -1161q-41 -98 -85 -166t-96.5 -110t-115 -60.5t-142.5 -18.5q-78 0 -152.5 24t-127.5 64zM242 1350q0 61 38.5 100t100.5 39 q61 0 100 -39t39 -100t-39 -100.5t-100 -39.5q-63 0 -101 39.5t-38 100.5zM666 1350q0 61 39.5 100t99.5 39q61 0 101 -39t40 -100t-40 -100.5t-101 -39.5t-100 39.5t-39 100.5z" />
<glyph unicode="&#x152;" horiz-adv-x="2529" d="M109 748q0 160 60 299t163.5 243.5t243 165t298.5 60.5q178 0 315.5 -73t229.5 -196v248h979v-213h-758v-426h758v-213h-758v-428h758v-215h-979v248q-92 -123 -229 -195.5t-316 -72.5q-160 0 -299 60t-242.5 164.5t-163.5 244t-60 299.5zM330 748q0 -113 42 -213.5 t115.5 -175t172.5 -117.5t214 -43q113 0 212.5 43t173 117.5t116.5 175t43 213.5v22q-4 111 -48 207t-117.5 168t-171 112.5t-208.5 40.5q-115 0 -214 -43t-172.5 -118.5t-115.5 -176t-42 -212.5z" />
<glyph unicode="&#x153;" horiz-adv-x="2250" d="M86 553q0 121 45 226.5t122 183t181.5 121.5t224.5 44q152 0 273 -67.5t194 -179.5q72 115 193 181t276 66q123 0 226.5 -42t179.5 -117.5t118 -180t42 -229.5v-82h-930q23 -135 120 -219t251 -84q113 0 193.5 49t129.5 135l184 -104q-86 -129 -208.5 -203t-301.5 -74 q-164 0 -285.5 66t-193.5 176q-72 -111 -191.5 -176.5t-269.5 -65.5q-121 0 -225 45.5t-181 123t-122 182t-45 225.5zM303 553q0 -76 27.5 -143.5t76 -117.5t112.5 -79t140 -29q74 0 139.5 29t115 79t77 117.5t27.5 143.5t-27.5 143.5t-77 117.5t-115 79t-139.5 29 q-76 0 -140 -29t-112.5 -79t-76 -117.5t-27.5 -143.5zM1241 662h696q-25 131 -115 201.5t-227 70.5q-133 0 -227 -76t-127 -196z" />
<glyph unicode="&#x178;" horiz-adv-x="1353" d="M37 1495h250l391 -653l393 653h246l-531 -866v-629h-221v631zM319 1735q0 61 39 100t101 39q61 0 100 -39t39 -100t-39 -100.5t-100 -39.5q-63 0 -101.5 39.5t-38.5 100.5zM743 1735q0 61 40 100t100 39q61 0 101 -39t40 -100t-40 -100.5t-101 -39.5t-100.5 39.5 t-39.5 100.5z" />
<glyph unicode="&#x2c6;" horiz-adv-x="1034" d="M197 1241l243 340h154l244 -340h-187l-135 193l-131 -193h-188z" />
<glyph unicode="&#x2dc;" horiz-adv-x="1034" d="M162 1241q0 119 56 190.5t153 71.5q51 0 89 -16.5t72 -36.5q31 -20 60 -36.5t57 -16.5q68 0 68 98h145q0 -121 -53 -191.5t-158 -70.5q-59 0 -102 21.5t-80 43.5q-27 16 -48.5 27.5t-49.5 11.5q-63 0 -64 -96h-145z" />
<glyph unicode="&#x2000;" horiz-adv-x="990" />
<glyph unicode="&#x2001;" horiz-adv-x="1980" />
<glyph unicode="&#x2002;" horiz-adv-x="990" />
<glyph unicode="&#x2003;" horiz-adv-x="1980" />
<glyph unicode="&#x2004;" horiz-adv-x="660" />
<glyph unicode="&#x2005;" horiz-adv-x="495" />
<glyph unicode="&#x2006;" horiz-adv-x="330" />
<glyph unicode="&#x2007;" horiz-adv-x="330" />
<glyph unicode="&#x2008;" horiz-adv-x="247" />
<glyph unicode="&#x2009;" horiz-adv-x="396" />
<glyph unicode="&#x200a;" horiz-adv-x="110" />
<glyph unicode="&#x2010;" d="M111 422v190h757v-190h-757z" />
<glyph unicode="&#x2011;" d="M111 422v190h757v-190h-757z" />
<glyph unicode="&#x2012;" d="M111 422v190h757v-190h-757z" />
<glyph unicode="&#x2013;" horiz-adv-x="1058" d="M111 422v190h839v-190h-839z" />
<glyph unicode="&#x2014;" horiz-adv-x="1468" d="M111 422v190h1249v-190h-1249z" />
<glyph unicode="&#x2018;" horiz-adv-x="524" d="M82 1139q0 111 68.5 203t177.5 163l75 -86q-92 -66 -140 -127t-50 -133q8 39 33.5 56.5t62.5 17.5q57 0 91 -39t34 -92q0 -78 -47 -123t-121 -45q-86 0 -135 59.5t-49 145.5z" />
<glyph unicode="&#x2019;" horiz-adv-x="524" d="M88 1335q0 78 47 123t121 45q86 0 135 -59.5t49 -145.5q0 -111 -68.5 -202.5t-176.5 -163.5l-76 86q94 66 142 129t48 135q-8 -41 -32.5 -59.5t-61.5 -18.5q-57 0 -92 39t-35 92z" />
<glyph unicode="&#x201a;" horiz-adv-x="524" d="M82 113q0 78 47 123t121 45q86 0 135 -59.5t49 -145.5q0 -111 -68.5 -203t-177.5 -164l-75 86q94 66 142 129.5t48 134.5v2q-14 -80 -96 -79q-57 0 -91 38.5t-34 92.5z" />
<glyph unicode="&#x201c;" horiz-adv-x="933" d="M82 1139q0 111 68.5 203t177.5 163l75 -86q-92 -63 -140 -125.5t-50 -132.5q18 66 92 66q55 0 88 -38t33 -87q0 -74 -43 -120t-117 -46q-86 0 -135 58.5t-49 144.5zM500 1139q0 111 68.5 203t176.5 163l76 -86q-92 -63 -140 -125.5t-50 -132.5q18 66 92 66q55 0 88 -38 t33 -87q0 -74 -43 -120t-117 -46q-86 0 -135 58.5t-49 144.5z" />
<glyph unicode="&#x201d;" horiz-adv-x="933" d="M88 1337q0 74 43 120t117 46q86 0 135 -58.5t49 -144.5q0 -111 -68.5 -202.5t-177.5 -163.5l-75 86q92 63 139 124.5t51 133.5q-10 -35 -33.5 -50.5t-58.5 -15.5q-55 0 -88 38t-33 87zM506 1337q0 74 43 120t117 46q86 0 135 -58.5t49 -144.5q0 -111 -68.5 -202.5 t-177.5 -163.5l-76 86q92 63 139.5 124.5t51.5 133.5q-10 -35 -33.5 -50.5t-58.5 -15.5q-55 0 -88 38t-33 87z" />
<glyph unicode="&#x201e;" horiz-adv-x="933" d="M88 115q0 74 43 120t117 46q86 0 135 -58.5t49 -144.5q0 -111 -68.5 -203t-177.5 -164l-75 86q92 63 139 126t51 132q-10 -35 -33.5 -50t-58.5 -15q-55 0 -88 38t-33 87zM506 115q0 74 43 120t117 46q86 0 135 -58.5t49 -144.5q0 -111 -68.5 -203t-177.5 -164l-76 86 q92 63 139.5 126t51.5 132q-10 -35 -33.5 -50t-58.5 -15q-55 0 -88 38t-33 87z" />
<glyph unicode="&#x2022;" horiz-adv-x="792" d="M207 518q0 39 15.5 74t41 60.5t60 41t73.5 15.5t74 -15.5t60.5 -41t41 -60.5t15.5 -74t-15.5 -73.5t-41 -60.5t-60.5 -41t-74 -15t-73.5 15t-60 41t-41 60.5t-15.5 73.5z" />
<glyph unicode="&#x2026;" horiz-adv-x="1259" d="M88 123q0 66 41 106.5t107 40.5t106.5 -41t40.5 -106q0 -66 -41 -107t-106 -41q-66 0 -107 41t-41 107zM481 123q0 66 41 106.5t107 40.5t106.5 -41t40.5 -106q0 -66 -41 -107t-106 -41q-66 0 -107 41t-41 107zM874 123q0 66 41 106.5t107 40.5t106.5 -41t40.5 -106 q0 -66 -41 -107t-106 -41q-66 0 -107 41t-41 107z" />
<glyph unicode="&#x202f;" horiz-adv-x="396" />
<glyph unicode="&#x2039;" horiz-adv-x="620" d="M145 449v139l332 243v-169l-201 -144l201 -143v-170z" />
<glyph unicode="&#x203a;" horiz-adv-x="620" d="M145 207v168l203 143l-203 146v170l332 -244v-139z" />
<glyph unicode="&#x205f;" horiz-adv-x="495" />
<glyph unicode="&#x20ac;" horiz-adv-x="1757" d="M82 449v180h154q-4 29 -6.5 58.5t-2.5 60.5t2 60.5t7 57.5h-154v183h203q43 104 113.5 190t162.5 147.5t202.5 95.5t233.5 34q193 0 347.5 -79t259.5 -214l-168 -142q-68 104 -183.5 163t-257.5 59q-150 0 -269.5 -69t-188.5 -185h692l-49 -183h-711q-16 -61 -16 -118 q0 -59 16 -119h647l-49 -180h-530q70 -117 188.5 -185.5t267.5 -68.5q162 0 273.5 68.5t181.5 189.5l188 -119q-104 -164 -261.5 -259t-373.5 -95q-125 0 -236.5 34.5t-204.5 97t-162.5 148.5t-112.5 189h-203z" />
<glyph unicode="&#x2122;" horiz-adv-x="1404" d="M88 1350v145h490v-145h-164v-449h-158v449h-168zM639 901v594h149l179 -235l188 235h137v-594h-157v342l-170 -201l-168 201v-342h-158z" />
<glyph unicode="&#x25fc;" horiz-adv-x="1105" d="M0 0v1106h1106v-1106h-1106z" />
<glyph unicode="&#xfb01;" horiz-adv-x="1292" d="M53 907v199h193v63q0 129 21.5 214t71.5 136.5t135 73t214 21.5h53v-205h-36q-80 0 -128.5 -8t-73 -35t-32.5 -74t-8 -125v-61h278v-199h-278v-907h-217v907h-193zM897 1438q0 68 44 112.5t112 44.5q70 0 113.5 -45t43.5 -112q0 -68 -44 -113t-113 -45q-70 0 -113 45 t-43 113zM942 0v1106h223v-1106h-223z" />
<glyph unicode="&#xfb02;" horiz-adv-x="1292" d="M53 907v199h193v63q0 129 21.5 214t71.5 136.5t135 73t214 21.5h53v-205h-36q-80 0 -128.5 -8t-73 -35t-32.5 -74t-8 -125v-61h278v-199h-278v-907h-217v907h-193zM942 0v1614h223v-1614h-223z" />
</font>
</defs>
</svg>
