<?xml version="1.0" encoding="utf-8"?>
<!-- Generator: Adobe Illustrator 21.1.0, SVG Export Plug-In . SVG Version: 6.00 Build 0)  -->
<svg version="1.1" id="Layer_1" xmlns="http://www.w3.org/2000/svg" xmlns:xlink="http://www.w3.org/1999/xlink" x="0px" y="0px"
	 viewBox="0 0 486.1 474" style="enable-background:new 0 0 486.1 474;" xml:space="preserve">
<path d="M106.1,0c125.2,0,250.3,0,375.5,0c1.5,0,3,0.6,4.5,1c-0.7,1.5-1.6,2.9-2.2,4.4c-44.3,103.7-88.5,207.5-132.8,311.2
	c-17.4,40.7-34.7,81.4-52.1,122.1c-5.8,13.5-15.7,21.7-30.4,23.5c-21,2.7-42,5.1-63,7.8c-9.5,1.2-19.1,2.6-28.6,4c-2.7,0-5.3,0-8,0
	c-14.2-2.4-23.2-11.5-31.4-22.5C95,394.4,52,337.5,9,280.7C-1,267.6-2.6,254.1,3.9,239C27.5,183.8,51,128.5,74.6,73.3
	C85,48.9,95.6,24.4,106.1,0z"/>
</svg>
