<?xml version="1.0" encoding="utf-8"?>
<!-- Generator: Adobe Illustrator 21.1.0, SVG Export Plug-In . SVG Version: 6.00 Build 0)  -->
<svg version="1.1" id="Layer_1" xmlns="http://www.w3.org/2000/svg" xmlns:xlink="http://www.w3.org/1999/xlink" x="0px" y="0px"
	 viewBox="0 0 59.3 59.3" style="enable-background:new 0 0 59.3 59.3;" xml:space="preserve">
<style type="text/css">
	.st0{fill:#231759;}
</style>
<g>
	<path class="st0" d="M29.6,2.5c15,0,27.1,12.2,27.1,27.1c0,15-12.2,27.1-27.1,27.1c-15,0-27.1-12.2-27.1-27.1S14.7,2.5,29.6,2.5
		 M29.6,0C13.3,0,0,13.3,0,29.6s13.3,29.6,29.6,29.6S59.3,46,59.3,29.6S46,0,29.6,0L29.6,0z"/>
	<path class="st0" d="M30.9,29.6l9.1-9.1c0.4-0.4,0.4-0.9,0-1.3s-0.9-0.4-1.3,0l-9.1,9.1l-9.1-9.1c-0.4-0.4-0.9-0.4-1.3,0
		s-0.4,0.9,0,1.3l9.1,9.1l-9.1,9.1c-0.4,0.4-0.4,0.9,0,1.3c0.2,0.2,0.4,0.3,0.6,0.3s0.5-0.1,0.6-0.3l9.1-9.1l9.1,9.1
		c0.2,0.2,0.4,0.3,0.6,0.3s0.5-0.1,0.6-0.3c0.4-0.4,0.4-0.9,0-1.3L30.9,29.6z"/>
</g>
</svg>
