<?xml version="1.0" encoding="utf-8"?>
<!-- Generator: Adobe Illustrator 21.1.0, SVG Export Plug-In . SVG Version: 6.00 Build 0)  -->
<svg version="1.1" id="Layer_1" xmlns="http://www.w3.org/2000/svg" xmlns:xlink="http://www.w3.org/1999/xlink" x="0px" y="0px"
	 viewBox="0 0 25 20" style="enable-background:new 0 0 25 20;" xml:space="preserve">
<style type="text/css">
	.st0{fill:#FFFFFF;}
</style>
<g>
	<path class="st0" d="M3,17.4c0.1,0,0.2,0,0.3-0.1l7-6.2l4.4,4.5c0.2,0.2,0.4,0.2,0.6,0c0.2-0.2,0.2-0.4,0-0.6l-2.1-2.1l4-4.4
		l4.9,4.5c0.2,0.2,0.4,0.2,0.6,0c0.2-0.2,0.1-0.5,0-0.6l-5.2-4.8c-0.1-0.1-0.2-0.1-0.3-0.1c-0.1,0-0.2,0.1-0.3,0.1l-4.2,4.7l-2-2.1
		c-0.2-0.2-0.4-0.2-0.6,0l-7.3,6.5c-0.2,0.2-0.2,0.4,0,0.6C2.8,17.3,2.9,17.4,3,17.4z"/>
	<path class="st0" d="M6.9,9.6c1.3,0,2.4-1.1,2.4-2.4c0-1.3-1.1-2.4-2.4-2.4c-1.3,0-2.4,1.1-2.4,2.4C4.5,8.5,5.6,9.6,6.9,9.6z
		 M6.9,5.7c0.8,0,1.5,0.7,1.5,1.6S7.7,8.8,6.9,8.8S5.4,8.1,5.4,7.2C5.4,6.3,6,5.7,6.9,5.7z"/>
	<path class="st0" d="M24.6,0H0.4C0.2,0,0,0.2,0,0.4v19.1C0,19.8,0.2,20,0.4,20h24.1c0.2,0,0.4-0.2,0.4-0.4V0.4
		C25,0.2,24.8,0,24.6,0z M24.1,19.1H0.9V0.9h23.3V19.1z"/>
</g>
</svg>
