<?xml version="1.0" encoding="utf-8"?>
<!-- Generator: Adobe Illustrator 16.0.0, SVG Export Plug-In . SVG Version: 6.00 Build 0)  -->
<!DOCTYPE svg PUBLIC "-//W3C//DTD SVG 1.1//EN" "http://www.w3.org/Graphics/SVG/1.1/DTD/svg11.dtd">
<svg version="1.1" id="Layer_1" xmlns="http://www.w3.org/2000/svg" xmlns:xlink="http://www.w3.org/1999/xlink" x="0px" y="0px"
	 width="50px" height="50px" viewBox="0 0 50 50" enable-background="new 0 0 50 50" xml:space="preserve">
<g>
	<g>
		<path fill-rule="evenodd" clip-rule="evenodd" fill="#242059" d="M27.121,25l5.657-5.657c0.585-0.585,0.585-1.536,0-2.122
			c-0.586-0.585-1.536-0.585-2.122,0L25,22.878l-5.657-5.657c-0.585-0.585-1.536-0.585-2.122,0c-0.585,0.586-0.585,1.536,0,2.122
			L22.878,25l-5.657,5.657c-0.585,0.585-0.585,1.535,0,2.121c0.585,0.585,1.536,0.585,2.122,0L25,27.122l5.656,5.656
			c0.586,0.585,1.537,0.585,2.122,0c0.585-0.586,0.585-1.536,0-2.121L27.121,25z"/>
	</g>
</g>
</svg>
