<?xml version="1.0" encoding="utf-8"?>
<!-- Generator: Adobe Illustrator 16.0.0, SVG Export Plug-In . SVG Version: 6.00 Build 0)  -->
<!DOCTYPE svg PUBLIC "-//W3C//DTD SVG 1.1//EN" "http://www.w3.org/Graphics/SVG/1.1/DTD/svg11.dtd">
<svg version="1.1" id="Layer_1" xmlns="http://www.w3.org/2000/svg" xmlns:xlink="http://www.w3.org/1999/xlink" x="0px" y="0px"
	 width="19.824px" height="19.82px" viewBox="0 0 19.824 19.82" enable-background="new 0 0 19.824 19.82" xml:space="preserve">
<path fill="#24205A" d="M9.912,0.437c-3.51,0-6.365,2.854-6.365,6.365c0,1.763,0.576,2.773,1.083,3.668
	c0.431,0.757,0.802,1.412,0.936,2.631c0.013,0.271,0.091,0.524,0.216,0.749c-0.104,0.219-0.162,0.464-0.162,0.724
	c0,0.279,0.068,0.544,0.188,0.777c-0.119,0.232-0.188,0.497-0.188,0.776c0,0.729,0.462,1.354,1.108,1.596
	c0.247,0.955,1.117,1.661,2.149,1.661h2.072c1.031,0,1.9-0.706,2.148-1.661c0.646-0.242,1.106-0.865,1.106-1.596
	c0-0.279-0.067-0.544-0.188-0.776c0.119-0.233,0.188-0.498,0.188-0.777c0-0.26-0.06-0.505-0.162-0.723
	c0.127-0.226,0.203-0.479,0.215-0.751c0.136-1.217,0.507-1.872,0.937-2.63c0.508-0.893,1.084-1.905,1.084-3.668
	C16.277,3.292,13.422,0.437,9.912,0.437z M11.984,17.164c0,0.571-0.463,1.036-1.035,1.036H8.877c-0.573,0-1.037-0.465-1.037-1.036
	H11.984z M12.503,15.61c0.286,0,0.519,0.231,0.519,0.519s-0.231,0.519-0.519,0.519H7.322c-0.287,0-0.518-0.23-0.518-0.519
	c0-0.286,0.23-0.519,0.518-0.519H12.503z M12.503,14.055c0.286,0,0.519,0.231,0.519,0.519c0,0.286-0.231,0.52-0.519,0.52H7.322
	c-0.287,0-0.518-0.232-0.518-0.52c0-0.286,0.23-0.519,0.518-0.519H12.503z M9.912,1.621c2.861,0,5.182,2.319,5.182,5.182
	c0,2.816-1.697,3.146-2.018,6.217c0,0.287-0.23,0.519-0.518,0.519H7.267c-0.286,0-0.519-0.23-0.519-0.519H6.747
	C6.43,9.948,4.731,9.62,4.731,6.803C4.731,3.941,7.051,1.621,9.912,1.621z"/>
</svg>
