<?xml version="1.0" encoding="utf-8"?>
<!-- Generator: Adobe Illustrator 16.0.0, SVG Export Plug-In . SVG Version: 6.00 Build 0)  -->
<!DOCTYPE svg PUBLIC "-//W3C//DTD SVG 1.1//EN" "http://www.w3.org/Graphics/SVG/1.1/DTD/svg11.dtd">
<svg version="1.1" id="Layer_1" xmlns="http://www.w3.org/2000/svg" xmlns:xlink="http://www.w3.org/1999/xlink" x="0px" y="0px"
	 width="19.824px" height="19.82px" viewBox="0 0 19.824 19.82" enable-background="new 0 0 19.824 19.82" xml:space="preserve">
<path fill="#24205A" d="M3.613,0.667c-0.797,0-1.518,0.757-2.154,1.427C1.331,2.229,1.207,2.36,1.085,2.481
	c-0.61,0.61-0.548,2.216,0.158,4.089c0.874,2.314,2.608,4.845,4.886,7.122c2.278,2.276,4.807,4.013,7.122,4.886
	c1.873,0.708,3.478,0.768,4.088,0.157c0.122-0.122,0.253-0.246,0.388-0.373c0.687-0.65,1.461-1.388,1.428-2.206
	c-0.022-0.563-0.434-1.167-1.217-1.797c-2.347-1.885-3.002-1.222-4.09-0.116l-0.215,0.215c-0.52,0.519-1.363,0.404-2.51-0.34
	c-0.794-0.518-1.777-1.358-2.92-2.501c-2.821-2.82-3.723-4.546-2.84-5.431l0.213-0.21C6.68,4.888,7.348,4.231,5.462,1.884
	C4.831,1.101,4.227,0.691,3.665,0.668C3.646,0.667,3.63,0.667,3.613,0.667z M15.932,19.821c-0.826,0-1.822-0.206-2.916-0.619
	c-2.402-0.905-5.015-2.694-7.357-5.037C3.315,11.821,1.526,9.207,0.62,6.806C-0.204,4.623-0.206,2.831,0.613,2.01
	C0.73,1.892,0.852,1.764,0.976,1.634C1.725,0.847,2.58-0.054,3.693,0.002C4.465,0.035,5.214,0.514,5.98,1.467
	c2.265,2.817,1.244,3.821,0.063,4.985L5.835,6.66c-0.193,0.192-0.56,1.089,2.84,4.486c1.11,1.11,2.056,1.922,2.813,2.413
	c0.475,0.311,1.324,0.777,1.675,0.428l0.211-0.212c1.162-1.179,2.166-2.196,4.981,0.066c0.953,0.767,1.435,1.515,1.468,2.289
	c0.045,1.12-0.849,1.969-1.638,2.716c-0.129,0.124-0.256,0.244-0.375,0.362C17.402,19.617,16.751,19.821,15.932,19.821z"/>
</svg>
