<?xml version="1.0" encoding="utf-8"?>
<!-- Generator: Adobe Illustrator 16.0.0, SVG Export Plug-In . SVG Version: 6.00 Build 0)  -->
<!DOCTYPE svg PUBLIC "-//W3C//DTD SVG 1.1//EN" "http://www.w3.org/Graphics/SVG/1.1/DTD/svg11.dtd">
<svg version="1.1" id="Layer_1" xmlns="http://www.w3.org/2000/svg" xmlns:xlink="http://www.w3.org/1999/xlink" x="0px" y="0px"
	 width="19.824px" height="19.821px" viewBox="0 0 19.824 19.821" enable-background="new 0 0 19.824 19.821" xml:space="preserve">
<g>
	<path fill="#24205A" d="M14.644,6.873l-4.732,4.169l-4.73-4.169c-0.189-0.166-0.477-0.148-0.643,0.04
		C4.372,7.102,4.392,7.388,4.579,7.554l5.033,4.435c0.086,0.075,0.193,0.113,0.299,0.113c0.109,0,0.215-0.038,0.301-0.113
		l5.033-4.435c0.188-0.166,0.205-0.452,0.039-0.642C15.118,6.724,14.831,6.707,14.644,6.873z"/>
	<path fill="#24205A" d="M15.853,4.441H3.972c-1.027,0-1.865,0.836-1.865,1.863v7.212c0,1.028,0.838,1.864,1.865,1.864h11.881
		c1.029,0,1.865-0.836,1.865-1.864V6.304C17.718,5.277,16.882,4.441,15.853,4.441z M16.718,13.516c0,0.477-0.387,0.864-0.865,0.864
		H3.972c-0.477,0-0.865-0.388-0.865-0.864V6.304c0-0.476,0.389-0.863,0.865-0.863h11.881c0.479,0,0.865,0.388,0.865,0.863V13.516z"
		/>
</g>
</svg>
