<?xml version="1.0" encoding="utf-8"?>
<!-- Generator: Adobe Illustrator 16.0.0, SVG Export Plug-In . SVG Version: 6.00 Build 0)  -->
<!DOCTYPE svg PUBLIC "-//W3C//DTD SVG 1.1//EN" "http://www.w3.org/Graphics/SVG/1.1/DTD/svg11.dtd">
<svg version="1.1" id="Layer_1" xmlns="http://www.w3.org/2000/svg" xmlns:xlink="http://www.w3.org/1999/xlink" x="0px" y="0px"
	 width="17.5px" height="14px" viewBox="0 0 17.5 14" enable-background="new 0 0 17.5 14" xml:space="preserve">
<g>
	<path fill="#FFFFFF" d="M17.379,6.518L15.002,4.62V0.365c0-0.097-0.032-0.177-0.098-0.24c-0.064-0.062-0.148-0.094-0.25-0.094
		H12.57c-0.101,0-0.184,0.032-0.249,0.094c-0.065,0.063-0.098,0.143-0.098,0.24v2.034L9.575,0.271C9.344,0.09,9.068,0,8.75,0
		S8.156,0.09,7.926,0.271L0.121,6.518c-0.072,0.056-0.112,0.13-0.12,0.224C-0.006,6.836,0.02,6.918,0.077,6.987L0.75,7.759
		C0.809,7.822,0.884,7.86,0.979,7.874c0.086,0.007,0.174-0.018,0.26-0.073L8.75,1.783l7.512,6.018
		c0.058,0.048,0.134,0.073,0.228,0.073h0.032c0.094-0.014,0.17-0.053,0.229-0.115l0.673-0.772c0.058-0.069,0.083-0.151,0.075-0.245
		C17.491,6.648,17.451,6.574,17.379,6.518z"/>
	<path fill="#FFFFFF" d="M8.75,2.625L2.636,7.89c0,0.008-0.002,0.019-0.005,0.034C2.627,7.939,2.625,7.949,2.625,7.957v5.332
		c0,0.191,0.067,0.359,0.202,0.5S3.121,14,3.306,14h4.083V9.734h2.723V14h4.083c0.185,0,0.344-0.07,0.479-0.211
		s0.202-0.309,0.202-0.5V7.957c0-0.03-0.004-0.052-0.011-0.067L8.75,2.625z"/>
</g>
</svg>
