<?xml version="1.0" encoding="utf-8"?>
<!-- Generator: Adobe Illustrator 19.2.1, SVG Export Plug-In . SVG Version: 6.00 Build 0)  -->
<svg version="1.1" id="Layer_1" xmlns="http://www.w3.org/2000/svg" xmlns:xlink="http://www.w3.org/1999/xlink" x="0px" y="0px"
	 viewBox="0 0 72.3 72.3" style="enable-background:new 0 0 72.3 72.3;" xml:space="preserve">
<style type="text/css">
	.st0{fill:none;stroke:#FFFFFF;stroke-width:2;stroke-miterlimit:10;}
	.st1{fill-rule:evenodd;clip-rule:evenodd;fill:none;}
</style>
<circle class="st0" cx="36.1" cy="36.1" r="35"/>
<path class="st1" d="M37.5,31.4c2.3,0,4.2,1.9,4.2,4.2c0,2.3-1.9,4.2-4.2,4.2c-2.3,0-4.2-1.9-4.2-4.2 M39.6,23.8
	c0-0.4-0.2-0.7-0.6-0.7c-0.9-0.1-1.9-0.1-2.8,0c-0.4,0-0.6,0.4-0.6,0.7c0,1.2-0.6,2.2-1.7,2.7c-1,0.4-2.4,0.1-3.1-0.7
	c-0.2-0.3-0.7-0.3-0.9-0.1c-0.7,0.6-1.4,1.3-2,2c-0.2,0.3-0.2,0.7,0.1,1c0.9,0.8,1.2,2,0.7,3.1c-0.4,1-1.5,1.7-2.7,1.7
	c-0.4,0-0.7,0.3-0.7,0.6c-0.1,0.9-0.1,1.9,0,2.8c0,0.4,0.5,0.6,0.8,0.6c1.1,0,2.1,0.6,2.6,1.7c0.4,1.1,0.2,2.3-0.7,3.1
	c-0.3,0.2-0.3,0.7-0.1,0.9c0.6,0.7,1.2,1.4,2,2c0.3,0.2,0.7,0.2,1-0.1c0.7-0.8,2.1-1.1,3.1-0.7c1.1,0.5,1.8,1.5,1.7,2.7
	c0,0.4,0.2,0.7,0.6,0.7c0.5,0.1,1,0.1,1.4,0.1c0.5,0,0.9,0,1.4-0.1c0.4,0,0.6-0.4,0.6-0.7c0-1.2,0.6-2.2,1.7-2.7
	c1-0.4,2.4-0.1,3.1,0.7c0.2,0.3,0.7,0.3,0.9,0.1c0.7-0.6,1.4-1.3,2-2c0.2-0.3,0.2-0.7-0.1-1c-0.9-0.8-1.2-2-0.7-3.1
	c0.4-1,1.5-1.7,2.6-1.7l0.2,0c0.4,0,0.7-0.2,0.7-0.6c0.1-0.9,0.1-1.9,0-2.8c0-0.4-0.4-0.6-0.8-0.6c-1.1,0-2.2-0.7-2.6-1.7
	c-0.4-1.1-0.2-2.3,0.7-3.1c0.3-0.2,0.3-0.7,0.1-0.9c-0.6-0.7-1.3-1.4-2-2c-0.3-0.2-0.7-0.2-0.9,0.1"/>
</svg>
