<svg id="Layer_1" data-name="Layer 1" xmlns="http://www.w3.org/2000/svg" xmlns:xlink="http://www.w3.org/1999/xlink" viewBox="0 0 1600 7289"><defs><style>.cls-1,.cls-3{fill:none;}.cls-2{font-size:12px;font-family:.SFNSText;}.cls-2,.cls-6{fill:#fff;}.cls-3{stroke:#fff;stroke-miterlimit:10;stroke-width:2px;}.cls-4{clip-path:url(#clip-path);}.cls-5{clip-path:url(#clip-path-2);}</style><clipPath id="clip-path"><path class="cls-1" d="M960.68,1650.92a3.46,3.46,0,0,0-1.34-1.18c0.18-2.4-.55-4.41-1.67-4.51h0a10.45,10.45,0,0,0-20.89,0h0c-1.14.1-1.88,2.17-1.66,4.63s1.31,4.37,2.45,4.27h0l3.7-.32a1.19,1.19,0,0,0,.8-0.42,1.17,1.17,0,0,0,.27-0.86l-0.58-6.56a1.18,1.18,0,0,0-1.28-1.07l-1,.09a7.78,7.78,0,0,1,15.53,0l-1-.09a1.18,1.18,0,0,0-1.28,1.07l-0.58,6.56a1.17,1.17,0,0,0,.27.86,1.19,1.19,0,0,0,.8.42l3.7,0.32h0c0.83,0.07,1.65-.95,2.1-2.47a1.61,1.61,0,0,1,.2.23,1.66,1.66,0,0,1,.14,1.59l-1.18,2.69a2.25,2.25,0,0,1-2.06,1.34h-1.58a1,1,0,0,0-1-.72h-2.93a1,1,0,0,0-1,1V1659a1,1,0,0,0,1,1h2.93a1,1,0,0,0,1-.72h1.58a4,4,0,0,0,3.7-2.41l1.18-2.69A3.42,3.42,0,0,0,960.68,1650.92Z"/></clipPath><clipPath id="clip-path-2"><rect class="cls-1" width="1600" height="7289"/></clipPath></defs><title>icon1</title><text class="cls-2" transform="translate(927.11 2050)">*:M&lt;7=G&gt;8P::G89=KRF;N*</text><circle class="cls-3" cx="948" cy="1647" r="35"/><rect class="cls-1" width="1600" height="7289"/><g class="cls-4"><g class="cls-5"><rect class="cls-6" x="930" y="1630" width="36.25" height="35"/></g></g></svg>