<?xml version="1.0" encoding="utf-8"?>
<!-- Generator: Adobe Illustrator 19.2.1, SVG Export Plug-In . SVG Version: 6.00 Build 0)  -->
<svg version="1.1" id="Layer_1" xmlns="http://www.w3.org/2000/svg" xmlns:xlink="http://www.w3.org/1999/xlink" x="0px" y="0px"
	 viewBox="0 0 72.3 72.1" style="enable-background:new 0 0 72.3 72.1;" xml:space="preserve">
<style type="text/css">
	.st0{fill:none;stroke:#FFFFFF;stroke-width:2;stroke-miterlimit:10;}
	.st1{clip-path:url(#SVGID_2_);}
	.st2{clip-path:url(#SVGID_4_);fill:#FFFFFF;}
</style>
<path class="st0" d="M36.1,1.1c-19.3,0-35,15.7-35,35c0,19.3,15.7,35,35,35"/>
<path class="st0" d="M36.1,71.1c19.3,0,35-15.7,35-35c0-19.3-15.7-35-35-35"/>
<g>
	<defs>
		<path id="SVGID_1_" d="M176.1-1814.2c-0.5,0.5-1.2,0.5-1.7,0c-0.5-0.5-0.5-1.2,0-1.7c0.5-0.5,1.2-0.5,1.7,0
			C176.5-1815.4,176.5-1814.7,176.1-1814.2z M197.1-1830.8c0-0.2-0.2-0.4-0.4-0.5c-0.2-0.1-0.4,0-0.6,0.1l-3.2,3.2l-3.6-1.1
			l-1.1-3.6l3.2-3.2c0.2-0.2,0.2-0.4,0.1-0.6c-0.1-0.2-0.3-0.4-0.5-0.4c-2-0.2-3.9,0.5-5.3,1.9c-1.9,1.9-2.4,4.7-1.5,7.1
			c-0.1,0.1-0.2,0.2-0.3,0.3l-10.8,10.2c0,0,0,0,0,0c-1.3,1.3-1.3,3.3,0,4.6c1.3,1.3,3.3,1.3,4.6,0c0,0,0,0,0,0l10.1-10.9
			c0.1-0.1,0.2-0.2,0.3-0.3c2.4,0.9,5.2,0.4,7.1-1.5C196.5-1826.9,197.2-1828.9,197.1-1830.8z"/>
	</defs>
	<clipPath id="SVGID_2_">
		<use xlink:href="#SVGID_1_"  style="overflow:visible;"/>
	</clipPath>
	<g class="st1">
		<defs>
			<rect id="SVGID_3_" x="-763.9" y="-3607.9" width="1600" height="7289"/>
		</defs>
		<clipPath id="SVGID_4_">
			<use xlink:href="#SVGID_3_"  style="overflow:visible;"/>
		</clipPath>
		<rect x="167.1" y="-1841.9" class="st2" width="35" height="35"/>
	</g>
</g>
</svg>
