<?xml version="1.0" encoding="UTF-8"?>
<svg width="15px" height="14px" viewBox="0 0 15 14" version="1.1" xmlns="http://www.w3.org/2000/svg" xmlns:xlink="http://www.w3.org/1999/xlink">
    <!-- Generator: Sketch 46.2 (44496) - http://www.bohemiancoding.com/sketch -->
    <title>linkedin-letters-4</title>
    <desc>Created with Sketch.</desc>
    <defs></defs>
    <g id="Symbols" stroke="none" stroke-width="1" fill="none" fill-rule="evenodd">
        <g id="Footer" transform="translate(-1238.000000, -759.000000)" fill-rule="nonzero" fill="#FFFFFF">
            <g id="Middle">
                <g transform="translate(215.000000, 568.000000)">
                    <g id="Social" transform="translate(900.000000, 141.000000)">
                        <g id="linkedin-letters-4" transform="translate(123.000000, 50.000000)">
                            <rect id="Rectangle-path" x="0" y="5" width="3" height="9"></rect>
                            <path d="M13.9651459,5.11945506 C13.2754174,4.37319774 12.3631678,4 11.2289546,4 C10.8110609,4 10.4311892,4.05095027 10.0895138,4.15291988 C9.74794294,4.25482041 9.45944957,4.39779204 9.22389428,4.58190385 C8.98847839,4.76601565 8.80098209,4.93693221 8.66178874,5.0946535 C8.52942611,5.24446456 8.39999094,5.41897353 8.27369232,5.61638422 L8.27369232,4.22666823 L5,4.22666823 L5.01003698,4.70010846 C5.01676314,5.01579286 5.02007395,5.98878749 5.02007395,7.61923053 C5.02007395,9.24981174 5.01345234,11.3766658 5.0001394,14 L8.27369232,14 L8.27369232,8.54617994 C8.27369232,8.21094446 8.30997181,7.94472501 8.38308839,7.74731432 C8.52249084,7.41183704 8.73288399,7.13097154 9.01496485,6.90423423 C9.29701086,6.67722057 9.64680646,6.56381737 10.0648396,6.56381737 C10.635135,6.56381737 11.0548409,6.7593973 11.3235391,7.15059171 C11.5921328,7.54175158 11.7264471,8.08254979 11.7264471,8.77291726 L11.7264471,13.9996891 L15,13.9996891 L15,8.3984069 C14.999756,6.95839695 14.6550835,5.86547057 13.9651459,5.11945506 Z" id="Shape"></path>
                            <path d="M2.01068967,0 C1.41259061,0 0.927969838,0.141919295 0.556713748,0.42548136 C0.185495521,0.709104875 0,1.06717534 0,1.50003073 C0,1.92683327 0.180156704,2.28367472 0.540507975,2.57015567 C0.900745654,2.85666735 1.3764684,3 1.96741116,3 L1.98903148,3 C2.59447614,3 3.08280759,2.85679025 3.45391222,2.57015567 C3.82501685,2.28367472 4.00695316,1.92695617 3.99979688,1.50003073 C3.99260272,1.06720606 3.80869749,0.709104875 3.44845981,0.42548136 C3.08825999,0.141796395 2.60882658,0 2.01068967,0 Z" id="Shape"></path>
                        </g>
                    </g>
                </g>
            </g>
        </g>
    </g>
</svg>