<?xml version="1.0" encoding="utf-8"?>
<!-- Generator: Adobe Illustrator 16.0.0, SVG Export Plug-In . SVG Version: 6.00 Build 0)  -->
<!DOCTYPE svg PUBLIC "-//W3C//DTD SVG 1.1//EN" "http://www.w3.org/Graphics/SVG/1.1/DTD/svg11.dtd">
<svg version="1.1" id="Layer_1" xmlns="http://www.w3.org/2000/svg" xmlns:xlink="http://www.w3.org/1999/xlink" x="0px" y="0px"
	 width="167px" height="62px" viewBox="0 0 167 62" enable-background="new 0 0 167 62" xml:space="preserve">
<g>
</g>
<g>
</g>
<g>
	<path fill-rule="evenodd" clip-rule="evenodd" fill="#291F6B" d="M25.879,21.797L36.623,8.19L12.707,6.256
		c-0.822-0.066-1.622,0.282-2.133,0.929L1.805,18.287L25.879,21.797z"/>
	<path fill-rule="evenodd" clip-rule="evenodd" fill="#1B3F91" d="M1.805,18.287L0.53,19.902c-0.626,0.792-0.704,1.887-0.197,2.76
		l9.342,16.073c0.385,0.665,0.917,1.219,1.542,1.631l14.662-18.569L1.805,18.287z"/>
	<path fill-rule="evenodd" clip-rule="evenodd" fill="#009D76" d="M11.217,40.366c0.601,0.397,1.289,0.665,2.022,0.769l21.939,3.1
		l-9.299-22.438"/>
	<path fill-rule="evenodd" clip-rule="evenodd" fill="#008664" d="M35.178,44.234l14.2-18.349c-0.666-0.525-1.468-0.877-2.335-1.004
		l-21.164-3.085L35.178,44.234z"/>
	<polygon fill-rule="evenodd" clip-rule="evenodd" fill="#CC2449" points="49.378,25.886 35.178,44.235 42.72,61.839 	"/>
	<path fill-rule="evenodd" clip-rule="evenodd" fill="#E73854" d="M42.72,61.839l13.805-16.446c0.591-0.703,0.745-1.676,0.402-2.527
		L50.896,27.91c-0.326-0.809-0.855-1.502-1.518-2.024L42.72,61.839z"/>
</g>
<g>
	<path fill-rule="evenodd" clip-rule="evenodd" fill="#372B84" d="M161.653,47.361c-0.121-0.194-0.278-0.354-0.469-0.479
		c-0.191-0.125-0.404-0.223-0.64-0.297c-0.237-0.072-0.473-0.133-0.709-0.182c-0.43-0.09-0.765-0.181-1.004-0.271
		c-0.24-0.09-0.36-0.246-0.36-0.469c0-0.201,0.083-0.371,0.25-0.51c0.167-0.14,0.425-0.208,0.771-0.208
		c0.305,0,0.562,0.059,0.77,0.177c0.209,0.118,0.382,0.281,0.521,0.489l0.969-0.552c-0.244-0.333-0.549-0.593-0.917-0.775
		c-0.368-0.185-0.816-0.276-1.343-0.276c-0.334,0-0.634,0.045-0.901,0.136c-0.268,0.09-0.495,0.213-0.682,0.369
		c-0.188,0.156-0.332,0.337-0.433,0.541c-0.101,0.205-0.15,0.415-0.15,0.631c0,0.284,0.057,0.521,0.172,0.713
		c0.114,0.19,0.265,0.348,0.453,0.469c0.187,0.121,0.396,0.218,0.63,0.292c0.232,0.072,0.466,0.133,0.702,0.182
		c0.188,0.041,0.366,0.081,0.536,0.119c0.171,0.038,0.321,0.083,0.454,0.136c0.131,0.053,0.236,0.118,0.316,0.197
		c0.079,0.08,0.12,0.183,0.12,0.309c0,0.215-0.094,0.399-0.281,0.557c-0.188,0.156-0.466,0.234-0.833,0.234
		c-0.354,0-0.652-0.073-0.896-0.22c-0.242-0.146-0.451-0.35-0.625-0.613l-1.01,0.572c0.243,0.409,0.567,0.719,0.974,0.928
		c0.406,0.208,0.907,0.312,1.505,0.312c0.388,0,0.728-0.054,1.015-0.162c0.288-0.106,0.526-0.246,0.714-0.416
		s0.327-0.361,0.422-0.573c0.093-0.211,0.141-0.422,0.141-0.63C161.836,47.799,161.774,47.556,161.653,47.361z"/>
	<path fill-rule="evenodd" clip-rule="evenodd" fill="#372B84" d="M155.89,44.051c-0.36,0-0.677,0.088-0.946,0.265
		c-0.271,0.178-0.467,0.443-0.584,0.798v-0.979h-1.104v5.623h1.124v-3.166c0-0.506,0.118-0.868,0.354-1.083
		c0.235-0.215,0.556-0.323,0.957-0.323c0.307,0,0.543,0.057,0.71,0.167l0.437-1.083c-0.112-0.068-0.249-0.123-0.412-0.161
		S156.084,44.051,155.89,44.051z"/>
	<path fill-rule="evenodd" clip-rule="evenodd" fill="#372B84" d="M151.35,44.831c-0.257-0.257-0.561-0.456-0.91-0.599
		c-0.351-0.143-0.734-0.213-1.151-0.213c-0.416,0-0.801,0.076-1.155,0.229c-0.354,0.153-0.663,0.361-0.927,0.624
		c-0.264,0.265-0.47,0.575-0.62,0.933c-0.148,0.357-0.224,0.744-0.224,1.161c0,0.409,0.072,0.791,0.214,1.146
		c0.142,0.354,0.345,0.661,0.609,0.921c0.264,0.261,0.577,0.465,0.941,0.615c0.365,0.148,0.773,0.224,1.225,0.224
		c0.61,0,1.123-0.123,1.541-0.37c0.417-0.246,0.76-0.574,1.03-0.983l-0.927-0.553c-0.167,0.271-0.384,0.489-0.651,0.656
		c-0.267,0.167-0.599,0.25-0.993,0.25c-0.521,0-0.948-0.137-1.281-0.411c-0.333-0.273-0.541-0.64-0.625-1.099h4.728v-0.468
		c0-0.417-0.073-0.8-0.219-1.151C151.809,45.393,151.606,45.088,151.35,44.831z M147.487,46.403c0.11-0.409,0.326-0.745,0.646-1.004
		c0.319-0.261,0.704-0.392,1.155-0.392c0.465,0,0.853,0.122,1.161,0.365c0.309,0.242,0.506,0.586,0.589,1.03H147.487z"/>
	<polygon fill-rule="evenodd" clip-rule="evenodd" fill="#372B84" points="146.259,44.134 144.884,44.134 142.26,47.007 
		142.26,41.551 141.146,41.551 141.146,49.756 142.26,49.756 142.26,48.298 143.271,47.205 145.062,49.756 146.383,49.756 
		144.082,46.497 	"/>
	<path fill-rule="evenodd" clip-rule="evenodd" fill="#372B84" d="M139.256,44.68c-0.197-0.212-0.44-0.374-0.729-0.489
		c-0.289-0.114-0.608-0.172-0.963-0.172c-0.396,0-0.745,0.082-1.047,0.245c-0.301,0.163-0.55,0.38-0.744,0.651v-0.781h-1.104v5.623
		h1.125v-3.104c0-0.25,0.037-0.478,0.113-0.683c0.077-0.204,0.183-0.378,0.318-0.52c0.135-0.143,0.295-0.252,0.479-0.328
		s0.384-0.114,0.599-0.114c0.472,0,0.83,0.142,1.073,0.426c0.242,0.285,0.363,0.667,0.363,1.146v3.176h1.137v-3.259
		c0-0.382-0.056-0.728-0.162-1.037C139.606,45.152,139.454,44.892,139.256,44.68z"/>
	<path fill-rule="evenodd" clip-rule="evenodd" fill="#372B84" d="M132.754,44.831c-0.257-0.257-0.561-0.456-0.911-0.599
		s-0.734-0.213-1.15-0.213c-0.417,0-0.802,0.076-1.156,0.229c-0.354,0.153-0.663,0.361-0.927,0.624
		c-0.264,0.265-0.47,0.575-0.619,0.933s-0.224,0.744-0.224,1.161c0,0.409,0.071,0.791,0.214,1.146
		c0.142,0.354,0.345,0.661,0.608,0.921c0.264,0.261,0.578,0.465,0.942,0.615c0.365,0.148,0.772,0.224,1.223,0.224
		c0.611,0,1.125-0.123,1.543-0.37c0.416-0.246,0.759-0.574,1.029-0.983l-0.927-0.553c-0.166,0.271-0.383,0.489-0.65,0.656
		s-0.599,0.25-0.995,0.25c-0.52,0-0.946-0.137-1.279-0.411c-0.334-0.273-0.542-0.64-0.625-1.099h4.727v-0.468
		c0-0.417-0.072-0.8-0.219-1.151C133.213,45.393,133.011,45.088,132.754,44.831z M128.891,46.403
		c0.111-0.409,0.327-0.745,0.646-1.004c0.32-0.261,0.704-0.392,1.156-0.392c0.465,0,0.852,0.122,1.161,0.365
		c0.309,0.242,0.505,0.586,0.588,1.03H128.891z"/>
	<path fill-rule="evenodd" clip-rule="evenodd" fill="#372B84" d="M125.58,44.915c-0.216-0.278-0.495-0.497-0.839-0.656
		c-0.343-0.16-0.702-0.24-1.077-0.24s-0.734,0.07-1.078,0.208c-0.344,0.14-0.645,0.337-0.905,0.594
		c-0.261,0.258-0.468,0.564-0.619,0.922c-0.153,0.357-0.229,0.759-0.229,1.202c0,0.438,0.078,0.838,0.234,1.198
		c0.156,0.361,0.364,0.67,0.625,0.926c0.26,0.258,0.56,0.455,0.899,0.595c0.341,0.138,0.694,0.208,1.063,0.208
		c0.375,0,0.734-0.083,1.078-0.25s0.627-0.396,0.849-0.688v0.823h1.104V41.53h-1.104V44.915z M125.501,47.679
		c-0.093,0.233-0.222,0.435-0.385,0.604s-0.358,0.306-0.583,0.406c-0.226,0.101-0.47,0.15-0.734,0.15
		c-0.264,0-0.508-0.048-0.733-0.146c-0.226-0.097-0.422-0.231-0.588-0.405c-0.167-0.173-0.297-0.376-0.392-0.609
		c-0.094-0.233-0.141-0.48-0.141-0.744s0.047-0.512,0.141-0.744c0.095-0.232,0.225-0.434,0.392-0.604
		c0.166-0.171,0.362-0.304,0.588-0.402c0.226-0.097,0.47-0.145,0.733-0.145c0.265,0,0.509,0.05,0.734,0.15
		c0.225,0.102,0.42,0.235,0.583,0.406c0.163,0.17,0.292,0.371,0.385,0.604c0.095,0.231,0.142,0.477,0.142,0.733
		C125.643,47.198,125.596,47.445,125.501,47.679z"/>
	<path fill-rule="evenodd" clip-rule="evenodd" fill="#372B84" d="M118.625,44.945c-0.216-0.292-0.495-0.519-0.838-0.682
		c-0.345-0.163-0.703-0.245-1.078-0.245s-0.734,0.07-1.078,0.208c-0.343,0.14-0.646,0.337-0.906,0.594
		c-0.26,0.258-0.467,0.564-0.619,0.922s-0.229,0.759-0.229,1.202c0,0.438,0.078,0.838,0.233,1.198
		c0.156,0.361,0.364,0.67,0.625,0.926c0.261,0.258,0.562,0.455,0.9,0.595c0.34,0.138,0.694,0.208,1.063,0.208
		c0.382,0,0.746-0.085,1.093-0.255c0.347-0.171,0.629-0.404,0.844-0.703v0.438c0,0.257-0.043,0.49-0.13,0.702
		s-0.209,0.395-0.365,0.547c-0.156,0.153-0.343,0.271-0.562,0.354c-0.219,0.083-0.463,0.125-0.734,0.125
		c-0.458,0-0.83-0.072-1.114-0.214c-0.285-0.143-0.538-0.366-0.761-0.672l-0.905,0.739c0.307,0.382,0.68,0.673,1.119,0.875
		c0.441,0.201,1.002,0.302,1.683,0.302c0.401,0,0.778-0.067,1.13-0.202c0.35-0.137,0.655-0.327,0.916-0.573
		c0.26-0.246,0.465-0.541,0.613-0.885c0.15-0.345,0.225-0.725,0.225-1.141v-5.175h-1.124V44.945z M118.547,47.679
		c-0.094,0.233-0.223,0.435-0.386,0.604s-0.358,0.306-0.583,0.406c-0.227,0.101-0.471,0.15-0.734,0.15s-0.508-0.048-0.734-0.146
		c-0.225-0.097-0.422-0.231-0.588-0.405c-0.167-0.173-0.297-0.376-0.391-0.609s-0.14-0.48-0.14-0.744s0.046-0.512,0.14-0.744
		s0.224-0.434,0.391-0.604c0.166-0.171,0.363-0.304,0.588-0.402c0.227-0.097,0.471-0.145,0.734-0.145s0.508,0.05,0.734,0.15
		c0.225,0.102,0.42,0.235,0.583,0.406c0.163,0.17,0.292,0.371,0.386,0.604c0.093,0.231,0.14,0.477,0.14,0.733
		C118.687,47.198,118.64,47.445,118.547,47.679z"/>
	<path fill-rule="evenodd" clip-rule="evenodd" fill="#372B84" d="M112.195,44.68c-0.197-0.212-0.441-0.374-0.729-0.489
		c-0.288-0.114-0.609-0.172-0.963-0.172c-0.396,0-0.745,0.082-1.046,0.245c-0.302,0.163-0.551,0.38-0.745,0.651v-0.781h-1.104v5.623
		h1.125v-3.104c0-0.25,0.038-0.478,0.114-0.683c0.077-0.204,0.183-0.378,0.318-0.52c0.135-0.143,0.295-0.252,0.479-0.328
		c0.185-0.076,0.384-0.114,0.6-0.114c0.471,0,0.829,0.142,1.071,0.426c0.243,0.285,0.364,0.667,0.364,1.146v3.176h1.136v-3.259
		c0-0.382-0.055-0.728-0.161-1.037C112.545,45.152,112.393,44.892,112.195,44.68z"/>
	<rect x="105.172" y="44.134" fill-rule="evenodd" clip-rule="evenodd" fill="#372B84" width="1.134" height="5.623"/>
	<path fill-rule="evenodd" clip-rule="evenodd" fill="#372B84" d="M105.734,41.645c-0.229,0-0.418,0.077-0.567,0.229
		c-0.15,0.152-0.224,0.344-0.224,0.572c0,0.23,0.072,0.421,0.219,0.573c0.145,0.153,0.336,0.229,0.572,0.229
		c0.235,0,0.429-0.076,0.577-0.229c0.149-0.152,0.225-0.343,0.225-0.573c0-0.229-0.075-0.42-0.225-0.572
		C106.163,41.722,105.97,41.645,105.734,41.645z"/>
	<path fill-rule="evenodd" clip-rule="evenodd" fill="#372B84" d="M103.501,46.882c-0.19-0.125-0.404-0.223-0.64-0.297
		c-0.237-0.072-0.473-0.133-0.709-0.182c-0.43-0.09-0.765-0.181-1.004-0.271c-0.24-0.09-0.36-0.246-0.36-0.469
		c0-0.201,0.084-0.371,0.25-0.51c0.167-0.14,0.425-0.208,0.771-0.208c0.305,0,0.562,0.059,0.77,0.177
		c0.209,0.118,0.382,0.281,0.521,0.489l0.969-0.552c-0.244-0.333-0.549-0.593-0.917-0.775c-0.368-0.185-0.814-0.276-1.343-0.276
		c-0.333,0-0.634,0.045-0.901,0.136c-0.267,0.09-0.495,0.213-0.682,0.369c-0.188,0.156-0.331,0.337-0.433,0.541
		c-0.101,0.205-0.15,0.415-0.15,0.631c0,0.284,0.057,0.521,0.172,0.713c0.114,0.19,0.265,0.348,0.453,0.469
		c0.187,0.121,0.396,0.218,0.63,0.292c0.232,0.072,0.466,0.133,0.703,0.182c0.187,0.041,0.365,0.081,0.536,0.119
		c0.17,0.038,0.32,0.083,0.453,0.136c0.131,0.053,0.236,0.118,0.316,0.197c0.08,0.08,0.12,0.183,0.12,0.309
		c0,0.215-0.094,0.399-0.281,0.557c-0.187,0.156-0.466,0.234-0.833,0.234c-0.354,0-0.652-0.073-0.896-0.22
		c-0.242-0.146-0.451-0.35-0.624-0.613l-1.01,0.572c0.242,0.409,0.566,0.719,0.973,0.928c0.406,0.208,0.907,0.312,1.505,0.312
		c0.388,0,0.728-0.054,1.015-0.162c0.288-0.106,0.526-0.246,0.714-0.416s0.328-0.361,0.422-0.573
		c0.094-0.211,0.141-0.422,0.141-0.63c0-0.291-0.061-0.534-0.183-0.729C103.849,47.167,103.692,47.007,103.501,46.882z"/>
	<path fill-rule="evenodd" clip-rule="evenodd" fill="#372B84" d="M98.16,46.882c-0.191-0.125-0.404-0.223-0.641-0.297
		c-0.236-0.072-0.473-0.133-0.708-0.182c-0.431-0.09-0.766-0.181-1.005-0.271c-0.24-0.09-0.359-0.246-0.359-0.469
		c0-0.201,0.083-0.371,0.249-0.51c0.167-0.14,0.424-0.208,0.771-0.208c0.305,0,0.562,0.059,0.77,0.177
		c0.209,0.118,0.382,0.281,0.521,0.489l0.969-0.552c-0.243-0.333-0.549-0.593-0.916-0.775c-0.369-0.185-0.816-0.276-1.344-0.276
		c-0.333,0-0.633,0.045-0.901,0.136c-0.267,0.09-0.494,0.213-0.681,0.369c-0.188,0.156-0.332,0.337-0.433,0.541
		c-0.101,0.205-0.151,0.415-0.151,0.631c0,0.284,0.058,0.521,0.172,0.713c0.114,0.19,0.265,0.348,0.453,0.469
		c0.188,0.121,0.396,0.218,0.63,0.292c0.233,0.072,0.467,0.133,0.703,0.182c0.188,0.041,0.365,0.081,0.536,0.119
		c0.17,0.038,0.32,0.083,0.453,0.136c0.132,0.053,0.237,0.118,0.317,0.197c0.079,0.08,0.12,0.183,0.12,0.309
		c0,0.215-0.095,0.399-0.282,0.557c-0.187,0.156-0.465,0.234-0.833,0.234c-0.354,0-0.652-0.073-0.895-0.22
		c-0.243-0.146-0.451-0.35-0.625-0.613l-1.01,0.572c0.242,0.409,0.566,0.719,0.974,0.928c0.406,0.208,0.907,0.312,1.504,0.312
		c0.389,0,0.728-0.054,1.016-0.162c0.287-0.106,0.526-0.246,0.714-0.416c0.187-0.17,0.327-0.361,0.421-0.573
		c0.094-0.211,0.141-0.422,0.141-0.63c0-0.291-0.061-0.534-0.183-0.729C98.507,47.167,98.351,47.007,98.16,46.882z"/>
	<path fill-rule="evenodd" clip-rule="evenodd" fill="#372B84" d="M92.626,44.873c-0.265-0.265-0.574-0.473-0.933-0.625
		c-0.357-0.153-0.737-0.229-1.14-0.229c-0.41,0-0.791,0.076-1.146,0.229c-0.354,0.152-0.663,0.36-0.927,0.625
		c-0.264,0.264-0.472,0.575-0.625,0.932c-0.152,0.357-0.229,0.738-0.229,1.14c0,0.41,0.077,0.791,0.229,1.146
		c0.153,0.354,0.361,0.663,0.625,0.927c0.264,0.265,0.573,0.473,0.927,0.625c0.354,0.153,0.735,0.229,1.146,0.229
		c0.402,0,0.782-0.076,1.14-0.229c0.358-0.152,0.668-0.36,0.933-0.625c0.264-0.264,0.472-0.573,0.624-0.927
		c0.153-0.354,0.229-0.735,0.229-1.146c0-0.401-0.076-0.782-0.229-1.14C93.098,45.448,92.89,45.137,92.626,44.873z M92.225,47.679
		c-0.094,0.227-0.223,0.424-0.385,0.594c-0.163,0.17-0.354,0.304-0.573,0.4c-0.219,0.098-0.456,0.146-0.713,0.146
		c-0.258,0-0.495-0.048-0.714-0.146c-0.219-0.097-0.409-0.23-0.572-0.4s-0.29-0.367-0.38-0.594c-0.091-0.225-0.136-0.47-0.136-0.734
		c0-0.256,0.045-0.5,0.136-0.729c0.09-0.229,0.217-0.428,0.38-0.599c0.163-0.169,0.354-0.304,0.572-0.4
		c0.219-0.098,0.456-0.146,0.714-0.146c0.25,0,0.485,0.049,0.708,0.146c0.222,0.097,0.415,0.231,0.578,0.4
		c0.162,0.171,0.291,0.369,0.385,0.599c0.094,0.229,0.141,0.473,0.141,0.729C92.365,47.209,92.318,47.454,92.225,47.679z"/>
	<rect x="85.41" y="41.552" fill-rule="evenodd" clip-rule="evenodd" fill="#372B84" width="1.135" height="8.205"/>
	<path fill-rule="evenodd" clip-rule="evenodd" fill="#372B84" d="M83.5,44.82c-0.261-0.257-0.559-0.454-0.895-0.594
		c-0.337-0.138-0.693-0.208-1.068-0.208c-0.388,0-0.755,0.085-1.098,0.256c-0.344,0.169-0.623,0.4-0.839,0.692v-0.833h-1.093v7.872
		H79.6v-2.999c0.209,0.284,0.485,0.5,0.828,0.645c0.344,0.146,0.713,0.22,1.109,0.22c0.361,0,0.712-0.07,1.052-0.208
		c0.34-0.14,0.64-0.337,0.9-0.595c0.261-0.256,0.469-0.564,0.625-0.926c0.156-0.36,0.234-0.761,0.234-1.198
		c0-0.443-0.076-0.845-0.229-1.202C83.965,45.385,83.759,45.078,83.5,44.82z M83.083,47.679c-0.093,0.233-0.223,0.437-0.39,0.609
		c-0.166,0.174-0.363,0.309-0.588,0.405c-0.226,0.099-0.467,0.146-0.724,0.146c-0.264,0-0.509-0.05-0.734-0.15
		c-0.226-0.101-0.422-0.236-0.588-0.406c-0.167-0.17-0.297-0.371-0.391-0.604c-0.094-0.233-0.141-0.48-0.141-0.744
		c0-0.257,0.047-0.502,0.141-0.733c0.094-0.233,0.224-0.435,0.391-0.604c0.166-0.171,0.362-0.305,0.588-0.406
		c0.225-0.101,0.47-0.15,0.734-0.15c0.257,0,0.498,0.048,0.724,0.145c0.225,0.099,0.422,0.231,0.588,0.402
		c0.167,0.17,0.297,0.371,0.39,0.604c0.094,0.232,0.141,0.48,0.141,0.744S83.176,47.445,83.083,47.679z"/>
	<path fill-rule="evenodd" clip-rule="evenodd" fill="#372B84" d="M76.57,44.873c-0.264-0.265-0.574-0.473-0.931-0.625
		c-0.358-0.153-0.738-0.229-1.141-0.229c-0.41,0-0.791,0.076-1.145,0.229c-0.354,0.152-0.663,0.36-0.927,0.625
		c-0.264,0.264-0.472,0.575-0.625,0.932c-0.152,0.357-0.229,0.738-0.229,1.14c0,0.41,0.077,0.791,0.229,1.146
		c0.153,0.354,0.361,0.663,0.625,0.927c0.264,0.265,0.573,0.473,0.927,0.625c0.354,0.153,0.735,0.229,1.145,0.229
		c0.403,0,0.783-0.076,1.141-0.229c0.357-0.152,0.667-0.36,0.931-0.625c0.264-0.264,0.472-0.573,0.625-0.927
		c0.153-0.354,0.229-0.735,0.229-1.146c0-0.401-0.076-0.782-0.229-1.14C77.042,45.448,76.833,45.137,76.57,44.873z M76.168,47.679
		c-0.093,0.227-0.222,0.424-0.385,0.594s-0.354,0.304-0.573,0.4c-0.218,0.098-0.456,0.146-0.713,0.146s-0.495-0.048-0.713-0.146
		c-0.219-0.097-0.41-0.23-0.573-0.4c-0.163-0.17-0.29-0.367-0.38-0.594c-0.09-0.225-0.135-0.47-0.135-0.734
		c0-0.256,0.045-0.5,0.135-0.729c0.09-0.229,0.217-0.428,0.38-0.599c0.163-0.169,0.354-0.304,0.573-0.4
		c0.218-0.098,0.456-0.146,0.713-0.146c0.25,0,0.486,0.049,0.708,0.146c0.222,0.097,0.415,0.231,0.578,0.4
		c0.163,0.171,0.292,0.369,0.385,0.599c0.094,0.229,0.141,0.473,0.141,0.729C76.31,47.209,76.263,47.454,76.168,47.679z"/>
	<path fill-rule="evenodd" clip-rule="evenodd" fill="#372B84" d="M76.783,32.326c-0.26-0.257-0.559-0.455-0.895-0.594
		c-0.337-0.138-0.692-0.208-1.067-0.208c-0.382,0-0.745,0.082-1.088,0.245c-0.344,0.163-0.623,0.39-0.839,0.681v-3.415H71.78v8.226
		h1.104v-0.812c0.215,0.292,0.496,0.519,0.844,0.682c0.346,0.163,0.715,0.245,1.103,0.245c0.361,0,0.712-0.069,1.052-0.209
		c0.34-0.138,0.638-0.336,0.895-0.593s0.463-0.566,0.62-0.927c0.156-0.361,0.234-0.761,0.234-1.198c0-0.443-0.077-0.844-0.229-1.202
		C77.25,32.891,77.044,32.583,76.783,32.326z M76.367,35.185c-0.094,0.232-0.224,0.435-0.391,0.608
		c-0.166,0.174-0.361,0.31-0.583,0.406c-0.222,0.098-0.461,0.146-0.718,0.146c-0.264,0-0.509-0.05-0.734-0.15
		s-0.422-0.236-0.588-0.406c-0.167-0.17-0.297-0.371-0.391-0.604c-0.094-0.233-0.141-0.481-0.141-0.745
		c0-0.256,0.047-0.501,0.141-0.734c0.094-0.231,0.224-0.434,0.391-0.604c0.166-0.17,0.363-0.306,0.588-0.406s0.47-0.151,0.734-0.151
		c0.257,0,0.496,0.049,0.718,0.146c0.222,0.097,0.417,0.23,0.583,0.4c0.167,0.17,0.297,0.372,0.391,0.604
		c0.094,0.232,0.141,0.48,0.141,0.744S76.461,34.951,76.367,35.185z"/>
	<path fill-rule="evenodd" clip-rule="evenodd" fill="#372B84" d="M79.329,36.537c0.264,0.261,0.578,0.466,0.942,0.615
		c0.365,0.148,0.772,0.224,1.223,0.224c0.611,0,1.125-0.123,1.542-0.37c0.416-0.246,0.76-0.575,1.03-0.983L83.14,35.47
		c-0.167,0.271-0.384,0.49-0.651,0.656c-0.267,0.167-0.599,0.25-0.995,0.25c-0.52,0-0.947-0.137-1.28-0.411
		c-0.333-0.273-0.542-0.64-0.625-1.098h4.727v-0.469c0-0.417-0.072-0.801-0.218-1.151c-0.146-0.35-0.349-0.654-0.604-0.911
		c-0.257-0.257-0.561-0.456-0.911-0.598c-0.351-0.143-0.734-0.214-1.151-0.214s-0.802,0.076-1.156,0.229
		c-0.354,0.153-0.662,0.361-0.927,0.625c-0.263,0.265-0.47,0.574-0.619,0.933c-0.149,0.356-0.224,0.743-0.224,1.16
		c0,0.409,0.072,0.791,0.214,1.146C78.862,35.97,79.065,36.277,79.329,36.537z M80.276,32.904c0.32-0.261,0.705-0.392,1.156-0.392
		c0.465,0,0.852,0.122,1.161,0.365s0.505,0.586,0.589,1.031h-3.551C79.742,33.499,79.957,33.164,80.276,32.904z"/>
	<path fill-rule="evenodd" clip-rule="evenodd" fill="#372B84" d="M85.889,35.429c0,0.694,0.152,1.19,0.458,1.489
		s0.739,0.447,1.302,0.447c0.236,0,0.453-0.029,0.65-0.089c0.198-0.058,0.377-0.144,0.536-0.255l-0.53-0.937
		c-0.167,0.146-0.358,0.219-0.573,0.219c-0.222,0-0.401-0.069-0.536-0.208s-0.203-0.365-0.203-0.677v-2.771h1.572v-1.01h-1.572
		v-1.937l-1.104,0.719v1.218h-1.114v1.01h1.114V35.429z"/>
	<path fill-rule="evenodd" clip-rule="evenodd" fill="#372B84" d="M90.72,34.097c0-0.507,0.118-0.868,0.354-1.083
		s0.555-0.323,0.958-0.323c0.305,0,0.541,0.055,0.708,0.166l0.437-1.083c-0.11-0.069-0.247-0.123-0.41-0.161
		c-0.164-0.038-0.343-0.057-0.537-0.057c-0.361,0-0.677,0.088-0.947,0.265c-0.271,0.177-0.465,0.443-0.583,0.796v-0.979h-1.104
		v5.623h1.125V34.097z"/>
	<path fill-rule="evenodd" clip-rule="evenodd" fill="#372B84" d="M98.331,32.378c-0.264-0.264-0.574-0.472-0.932-0.625
		c-0.357-0.153-0.737-0.229-1.14-0.229c-0.41,0-0.792,0.076-1.146,0.229c-0.354,0.153-0.663,0.361-0.927,0.625
		c-0.265,0.265-0.473,0.574-0.625,0.933c-0.153,0.356-0.229,0.736-0.229,1.139c0,0.411,0.076,0.792,0.229,1.146
		c0.152,0.354,0.36,0.663,0.625,0.928c0.264,0.264,0.573,0.472,0.927,0.625c0.354,0.151,0.735,0.229,1.146,0.229
		c0.402,0,0.782-0.077,1.14-0.229c0.357-0.153,0.668-0.361,0.932-0.625c0.265-0.265,0.473-0.573,0.625-0.928
		c0.153-0.354,0.229-0.734,0.229-1.146c0-0.402-0.076-0.782-0.229-1.139C98.804,32.952,98.596,32.643,98.331,32.378z M97.931,35.185
		c-0.094,0.225-0.223,0.423-0.386,0.593c-0.163,0.171-0.354,0.304-0.572,0.4c-0.219,0.099-0.456,0.146-0.713,0.146
		c-0.258,0-0.495-0.048-0.714-0.146c-0.219-0.097-0.409-0.229-0.572-0.4c-0.163-0.17-0.29-0.368-0.38-0.593
		c-0.091-0.227-0.136-0.471-0.136-0.735c0-0.256,0.045-0.499,0.136-0.728c0.09-0.229,0.217-0.43,0.38-0.6s0.354-0.303,0.572-0.4
		s0.456-0.146,0.714-0.146c0.25,0,0.485,0.049,0.708,0.146c0.222,0.098,0.414,0.23,0.577,0.4s0.292,0.37,0.386,0.6
		c0.094,0.229,0.141,0.472,0.141,0.728C98.071,34.714,98.024,34.958,97.931,35.185z"/>
	<polygon fill-rule="evenodd" clip-rule="evenodd" fill="#372B84" points="103.204,34.002 105.381,31.638 104.006,31.638 
		101.382,34.513 101.382,29.057 100.269,29.057 100.269,37.262 101.382,37.262 101.382,35.804 102.393,34.71 104.183,37.262 
		105.505,37.262 	"/>
	<polygon fill-rule="evenodd" clip-rule="evenodd" fill="#372B84" points="110.16,37.262 111.481,37.262 109.181,34.002 
		111.356,31.638 109.982,31.638 107.358,34.513 107.358,29.057 106.244,29.057 106.244,37.262 107.358,37.262 107.358,35.804 
		108.369,34.71 	"/>
	<path fill-rule="evenodd" clip-rule="evenodd" fill="#372B84" d="M115.99,37.006c0.417-0.246,0.76-0.575,1.031-0.983l-0.927-0.553
		c-0.167,0.271-0.384,0.49-0.65,0.656c-0.268,0.167-0.6,0.25-0.995,0.25c-0.52,0-0.947-0.137-1.281-0.411
		c-0.333-0.273-0.541-0.64-0.624-1.098h4.728v-0.469c0-0.417-0.073-0.801-0.219-1.151c-0.146-0.35-0.348-0.654-0.604-0.911
		c-0.257-0.257-0.561-0.456-0.912-0.598c-0.35-0.143-0.732-0.214-1.15-0.214c-0.417,0-0.802,0.076-1.155,0.229
		c-0.354,0.153-0.662,0.361-0.927,0.625c-0.265,0.265-0.471,0.574-0.619,0.933c-0.15,0.356-0.225,0.743-0.225,1.16
		c0,0.409,0.071,0.791,0.214,1.146c0.143,0.354,0.345,0.661,0.608,0.921c0.264,0.261,0.579,0.466,0.943,0.615
		c0.363,0.148,0.771,0.224,1.223,0.224C115.061,37.376,115.574,37.253,115.99,37.006z M113.231,32.904
		c0.318-0.261,0.704-0.392,1.155-0.392c0.466,0,0.853,0.122,1.161,0.365c0.31,0.243,0.505,0.586,0.589,1.031h-3.551
		C112.696,33.499,112.912,33.164,113.231,32.904z"/>
	<path fill-rule="evenodd" clip-rule="evenodd" fill="#372B84" d="M122.071,32.939c0.243,0.285,0.364,0.667,0.364,1.146v3.176h1.136
		v-3.259c0-0.383-0.055-0.728-0.162-1.036c-0.107-0.31-0.26-0.57-0.458-0.781c-0.198-0.212-0.44-0.375-0.729-0.49
		c-0.288-0.114-0.609-0.171-0.963-0.171c-0.396,0-0.745,0.081-1.047,0.244c-0.303,0.163-0.551,0.38-0.744,0.651v-0.781h-1.104v5.623
		h1.125v-3.104c0-0.25,0.038-0.478,0.114-0.682c0.076-0.205,0.182-0.379,0.317-0.521c0.136-0.143,0.295-0.253,0.479-0.328
		c0.184-0.076,0.383-0.114,0.599-0.114C121.471,32.514,121.828,32.655,122.071,32.939z"/>
</g>
<g>
	<path fill-rule="evenodd" clip-rule="evenodd" fill="#231759" d="M69.825,11.275c-0.577-0.401-1.224-0.71-1.942-0.927
		c-0.719-0.217-1.429-0.401-2.131-0.552c-0.568-0.133-1.102-0.258-1.604-0.375c-0.501-0.117-0.935-0.255-1.303-0.414
		c-0.368-0.158-0.66-0.355-0.877-0.589c-0.217-0.233-0.326-0.534-0.326-0.902c0-0.601,0.222-1.115,0.664-1.541
		c0.443-0.426,1.166-0.64,2.168-0.64c1.053,0,1.909,0.206,2.569,0.615c0.66,0.409,1.232,0.965,1.717,1.666l2.882-2.255
		c-0.468-0.518-0.949-0.973-1.441-1.366c-0.493-0.392-1.028-0.723-1.604-0.99c-0.577-0.267-1.199-0.472-1.867-0.614
		c-0.669-0.142-1.404-0.213-2.206-0.213c-0.952,0-1.825,0.142-2.618,0.426c-0.794,0.284-1.479,0.668-2.056,1.153
		c-0.576,0.485-1.023,1.056-1.34,1.717c-0.318,0.66-0.476,1.365-0.476,2.117c0,0.936,0.175,1.7,0.526,2.293
		c0.35,0.594,0.802,1.078,1.353,1.454c0.551,0.376,1.169,0.668,1.855,0.877c0.684,0.209,1.37,0.388,2.055,0.539
		c0.634,0.15,1.215,0.288,1.741,0.413c0.527,0.125,0.978,0.285,1.354,0.477c0.376,0.192,0.668,0.425,0.877,0.701
		c0.209,0.276,0.313,0.623,0.313,1.04c0,0.669-0.25,1.216-0.752,1.642c-0.501,0.426-1.253,0.639-2.255,0.639
		c-1.103,0-2.064-0.242-2.882-0.727c-0.819-0.484-1.529-1.203-2.13-2.155l-3.083,2.456c0.434,0.551,0.915,1.056,1.441,1.516
		c0.526,0.459,1.115,0.856,1.767,1.19c0.652,0.335,1.378,0.594,2.18,0.777c0.802,0.184,1.696,0.276,2.682,0.276
		c1.019,0,1.942-0.15,2.769-0.451c0.827-0.301,1.533-0.715,2.118-1.241c0.584-0.526,1.035-1.136,1.353-1.829
		c0.317-0.693,0.476-1.433,0.476-2.218c0-0.986-0.184-1.796-0.551-2.431C70.873,12.194,70.401,11.676,69.825,11.275z"/>
	<path fill-rule="evenodd" clip-rule="evenodd" fill="#231759" d="M80.27,17.766c-0.435,0-0.789-0.142-1.065-0.426
		s-0.413-0.785-0.413-1.504v-5.563h3.559V7.215h-3.559V2.278l-3.409,2.005v2.932h-2.506v3.058h2.506v5.688
		c0,1.838,0.393,3.137,1.178,3.898c0.785,0.76,1.888,1.14,3.308,1.14c0.635,0,1.224-0.088,1.767-0.263
		c0.543-0.176,1.032-0.43,1.466-0.765l-1.579-2.707C81.139,17.599,80.721,17.766,80.27,17.766z"/>
	<path fill-rule="evenodd" clip-rule="evenodd" fill="#231759" d="M92.023,6.965c-0.869,0-1.625,0.187-2.268,0.563
		c-0.644,0.376-1.133,0.965-1.467,1.767v-2.08h-3.407v13.533h3.433v-7.142c0-1.137,0.267-1.951,0.802-2.444
		c0.534-0.492,1.244-0.739,2.13-0.739c0.386,0,0.735,0.046,1.053,0.138c0.317,0.092,0.567,0.204,0.752,0.338l1.253-3.409
		c-0.284-0.15-0.622-0.275-1.015-0.375C92.896,7.014,92.475,6.965,92.023,6.965z"/>
	<path fill-rule="evenodd" clip-rule="evenodd" fill="#231759" d="M105.749,8.97c-0.468-0.635-1.057-1.132-1.767-1.492
		c-0.71-0.358-1.516-0.539-2.418-0.539c-0.87,0-1.701,0.163-2.494,0.489c-0.794,0.326-1.491,0.798-2.092,1.416
		c-0.602,0.618-1.082,1.362-1.442,2.231c-0.358,0.868-0.538,1.837-0.538,2.907c0,1.086,0.184,2.059,0.552,2.919
		c0.366,0.861,0.852,1.6,1.454,2.218c0.601,0.619,1.294,1.09,2.08,1.416c0.784,0.326,1.595,0.489,2.43,0.489
		c0.886,0,1.691-0.184,2.419-0.551c0.727-0.368,1.332-0.886,1.816-1.554v1.829h3.434V7.215h-3.434V8.97z M105.661,15.448
		c-0.191,0.46-0.455,0.86-0.789,1.203c-0.335,0.342-0.73,0.614-1.19,0.814c-0.459,0.201-0.956,0.301-1.491,0.301
		c-0.518,0-1.006-0.1-1.466-0.301c-0.46-0.2-0.856-0.472-1.19-0.814c-0.335-0.343-0.602-0.743-0.802-1.203
		c-0.201-0.46-0.301-0.956-0.301-1.492c0-0.534,0.1-1.031,0.301-1.49c0.2-0.46,0.467-0.861,0.802-1.203
		c0.334-0.343,0.73-0.615,1.19-0.815c0.46-0.201,0.948-0.301,1.466-0.301c0.535,0,1.032,0.1,1.491,0.301
		c0.46,0.2,0.855,0.472,1.19,0.815c0.334,0.342,0.598,0.748,0.789,1.215c0.192,0.468,0.288,0.961,0.288,1.478
		C105.949,14.492,105.854,14.988,105.661,15.448z"/>
	<path fill-rule="evenodd" clip-rule="evenodd" fill="#231759" d="M118.655,17.766c-0.435,0-0.788-0.142-1.064-0.426
		s-0.413-0.785-0.413-1.504v-5.563h3.558V7.215h-3.558V2.278l-3.409,2.005v2.932h-2.506v3.058h2.506v5.688
		c0,1.838,0.393,3.137,1.178,3.898c0.785,0.76,1.889,1.14,3.309,1.14c0.634,0,1.224-0.088,1.767-0.263
		c0.543-0.176,1.031-0.43,1.466-0.765l-1.578-2.707C119.523,17.599,119.106,17.766,118.655,17.766z"/>
	<path fill-rule="evenodd" clip-rule="evenodd" fill="#231759" d="M134.414,8.907c-0.618-0.609-1.354-1.09-2.205-1.441
		c-0.853-0.35-1.788-0.526-2.807-0.526c-1.002,0-1.938,0.184-2.808,0.551c-0.869,0.368-1.62,0.869-2.255,1.504
		c-0.635,0.635-1.132,1.383-1.491,2.243c-0.359,0.861-0.539,1.784-0.539,2.769c0,0.986,0.167,1.905,0.501,2.757
		s0.815,1.596,1.441,2.231c0.627,0.635,1.382,1.131,2.268,1.491c0.887,0.359,1.871,0.538,2.957,0.538
		c1.504,0,2.749-0.283,3.735-0.852c0.985-0.568,1.82-1.328,2.506-2.28l-2.833-1.654c-0.334,0.551-0.775,0.989-1.328,1.316
		c-0.551,0.325-1.228,0.488-2.029,0.488c-1.002,0-1.843-0.254-2.52-0.764c-0.676-0.51-1.131-1.207-1.365-2.093h10.751v-1.303
		c0-1.003-0.176-1.93-0.525-2.782C135.517,10.248,135.032,9.518,134.414,8.907z M125.743,12.478
		c0.284-0.801,0.743-1.436,1.379-1.904c0.634-0.468,1.395-0.702,2.28-0.702c0.901,0,1.662,0.222,2.28,0.664
		c0.618,0.443,1.044,1.09,1.278,1.942H125.743z"/>
	<path fill-rule="evenodd" clip-rule="evenodd" fill="#231759" d="M147.44,17.089c-0.576,0.435-1.265,0.652-2.067,0.652
		c-0.518,0-1.003-0.1-1.454-0.301c-0.45-0.2-0.848-0.472-1.189-0.814c-0.343-0.342-0.61-0.74-0.802-1.191
		c-0.192-0.451-0.289-0.935-0.289-1.453s0.097-1.011,0.289-1.479c0.191-0.467,0.454-0.873,0.79-1.215
		c0.334-0.343,0.726-0.614,1.177-0.815c0.451-0.2,0.935-0.301,1.453-0.301c0.785,0,1.471,0.206,2.056,0.615
		c0.584,0.409,1.019,0.981,1.303,1.716l3.184-1.278c-0.269-0.635-0.614-1.216-1.04-1.742c-0.427-0.526-0.92-0.977-1.479-1.353
		s-1.182-0.668-1.867-0.877c-0.685-0.209-1.42-0.313-2.205-0.313c-1.003,0-1.934,0.18-2.794,0.539s-1.612,0.856-2.256,1.491
		c-0.643,0.635-1.145,1.378-1.504,2.23c-0.358,0.852-0.539,1.78-0.539,2.782c0,0.986,0.181,1.904,0.539,2.756
		c0.359,0.852,0.856,1.596,1.491,2.231c0.635,0.635,1.387,1.137,2.255,1.504c0.87,0.367,1.813,0.551,2.833,0.551
		c1.62,0,2.986-0.405,4.097-1.215c1.111-0.811,1.959-1.843,2.544-3.096l-3.232-1.328C148.447,16.087,148.018,16.655,147.44,17.089z"
		/>
	<path fill-rule="evenodd" clip-rule="evenodd" fill="#231759" d="M166.402,10.21c-0.251-0.693-0.603-1.282-1.054-1.767
		c-0.45-0.484-1.002-0.856-1.653-1.115c-0.651-0.259-1.378-0.389-2.181-0.389c-0.836,0-1.587,0.172-2.256,0.514
		c-0.668,0.343-1.228,0.815-1.679,1.416V1h-3.433v19.749h3.433V13.28c0-1.052,0.276-1.867,0.827-2.444
		c0.552-0.576,1.236-0.864,2.055-0.864c0.919,0,1.608,0.28,2.068,0.84c0.459,0.56,0.688,1.324,0.688,2.292v7.645h3.559v-8.171
		C166.777,11.693,166.652,10.903,166.402,10.21z"/>
</g>
</svg>
