<?xml version="1.0" encoding="utf-8"?>
<!-- Generator: Adobe Illustrator 16.0.0, SVG Export Plug-In . SVG Version: 6.00 Build 0)  -->
<!DOCTYPE svg PUBLIC "-//W3C//DTD SVG 1.1//EN" "http://www.w3.org/Graphics/SVG/1.1/DTD/svg11.dtd">
<svg version="1.1" id="Layer_1" xmlns="http://www.w3.org/2000/svg" xmlns:xlink="http://www.w3.org/1999/xlink" x="0px" y="0px"
	 width="50px" height="50px" viewBox="0 0 50 50" enable-background="new 0 0 50 50" xml:space="preserve">
<g>
	<path fill="#FFFFFF" d="M29.065,11.053l-12.69-1.026c-0.436-0.034-0.86,0.15-1.131,0.493l-4.653,5.891l12.773,1.862L29.065,11.053z
		"/>
	<path fill="#FFFFFF" d="M10.502,16.563l-0.677,0.856c-0.332,0.421-0.374,1.001-0.104,1.465l4.957,8.527
		c0.205,0.354,0.487,0.647,0.818,0.866l7.78-9.853L10.502,16.563z"/>
	<path fill="#FFFFFF" d="M15.605,28.386c0.319,0.211,0.684,0.354,1.073,0.408l11.641,1.645l-4.934-11.905L15.605,28.386z"/>
	<path fill="#FFFFFF" d="M34.832,20.17l-11.229-1.638l4.934,11.906l7.535-9.735C35.718,20.424,35.292,20.238,34.832,20.17z"/>
	<polygon fill="#FFFFFF" points="28.689,30.636 32.692,39.977 36.224,20.901 	"/>
	<path fill="#FFFFFF" d="M40.36,29.911l-3.2-7.936c-0.173-0.43-0.454-0.797-0.806-1.074l-3.532,19.076l7.325-8.727
		C40.46,30.877,40.542,30.362,40.36,29.911z"/>
</g>
</svg>
