<?xml version="1.0" encoding="utf-8"?>
<!-- Generator: Adobe Illustrator 16.0.0, SVG Export Plug-In . SVG Version: 6.00 Build 0)  -->
<!DOCTYPE svg PUBLIC "-//W3C//DTD SVG 1.1//EN" "http://www.w3.org/Graphics/SVG/1.1/DTD/svg11.dtd">
<svg version="1.1" id="Layer_1" xmlns="http://www.w3.org/2000/svg" xmlns:xlink="http://www.w3.org/1999/xlink" x="0px" y="0px"
	 width="24px" height="24px" viewBox="0 0 24 24" enable-background="new 0 0 24 24" xml:space="preserve">
<g>
	<defs>
		<path id="SVGID_1_" d="M7.82,10.419l3.983,3.983c0.057,0.058,0.122,0.085,0.196,0.085s0.14-0.027,0.196-0.085l3.983-3.983
			c0.057-0.057,0.086-0.123,0.086-0.196c0-0.074-0.029-0.14-0.086-0.196l-0.428-0.428c-0.057-0.058-0.123-0.086-0.197-0.086
			s-0.139,0.028-0.195,0.086L12,12.958L8.641,9.599C8.583,9.541,8.518,9.513,8.444,9.513c-0.074,0-0.141,0.028-0.197,0.086
			L7.82,10.026c-0.058,0.057-0.086,0.122-0.086,0.195C7.734,10.296,7.763,10.362,7.82,10.419z"/>
	</defs>
	<use xlink:href="#SVGID_1_"  overflow="visible" fill="#231759"/>
	<clipPath id="SVGID_2_">
		<use xlink:href="#SVGID_1_"  overflow="visible"/>
	</clipPath>
	<g clip-path="url(#SVGID_2_)">
		<defs>
			<rect id="SVGID_3_" x="-338.268" y="-310.501" width="375" height="667"/>
		</defs>
		<use xlink:href="#SVGID_3_"  overflow="visible" fill="#231759"/>
		<clipPath id="SVGID_4_">
			<use xlink:href="#SVGID_3_"  overflow="visible"/>
		</clipPath>
		<rect x="2.734" y="4.513" clip-path="url(#SVGID_4_)" fill="#231759" width="18.531" height="14.975"/>
	</g>
</g>
</svg>
