<?xml version="1.0" encoding="utf-8"?>
<!-- Generator: Adobe Illustrator 21.1.0, SVG Export Plug-In . SVG Version: 6.00 Build 0)  -->
<svg version="1.1" id="Layer_1" xmlns="http://www.w3.org/2000/svg" xmlns:xlink="http://www.w3.org/1999/xlink" x="0px" y="0px"
	 viewBox="0 0 35 35" style="enable-background:new 0 0 35 35;" xml:space="preserve">
<style type="text/css">
	.st0{fill:#E73854;}
</style>
<g>
	<path class="st0" d="M17.5,0C7.9,0,0,7.9,0,17.5S7.9,35,17.5,35S35,27.1,35,17.5S27.1,0,17.5,0z M17.5,33C9,33,2,26,2,17.5
		S9,2,17.5,2S33,9,33,17.5S26,33,17.5,33z"/>
	<path class="st0" d="M23.8,16.7h-8.7v-1.5c0-0.1,0-0.2-0.1-0.2c-0.1,0-0.2,0-0.2,0l-2.7,2.3c0,0-0.1,0.1-0.1,0.2
		c0,0.1,0,0.1,0.1,0.1l2.7,2.3c0.1,0.1,0.2,0.1,0.2,0c0.1,0,0.1-0.1,0.1-0.2v-1.5h8.7c0.1,0,0.1,0,0.2-0.1c0,0,0.1-0.1,0.1-0.1v-1.3
		c0-0.1,0-0.1-0.1-0.2C23.9,16.7,23.8,16.7,23.8,16.7z"/>
</g>
</svg>
