<?xml version="1.0" encoding="utf-8"?>
<!-- Generator: Adobe Illustrator 16.0.0, SVG Export Plug-In . SVG Version: 6.00 Build 0)  -->
<!DOCTYPE svg PUBLIC "-//W3C//DTD SVG 1.1//EN" "http://www.w3.org/Graphics/SVG/1.1/DTD/svg11.dtd">
<svg version="1.1" id="Layer_1" xmlns="http://www.w3.org/2000/svg" xmlns:xlink="http://www.w3.org/1999/xlink" x="0px" y="0px"
	 width="20px" height="20px" viewBox="0 0 20 20" enable-background="new 0 0 20 20" xml:space="preserve">
<path fill="#FFFFFF" d="M1.193,8.528c0-4.046,3.291-7.331,7.332-7.331c4.045,0,7.332,3.291,7.332,7.331s-3.287,7.335-7.332,7.335
	C4.484,15.863,1.193,12.572,1.193,8.528z M19.827,18.98l-4.861-4.86c1.304-1.499,2.093-3.455,2.093-5.592
	C17.059,3.823,13.23,0,8.53,0C3.823,0,0,3.827,0,8.528c0,4.7,3.828,8.526,8.53,8.526c2.138,0,4.094-0.789,5.593-2.093l4.861,4.861
	C19.1,19.938,19.255,20,19.406,20c0.149,0,0.306-0.059,0.421-0.177C20.058,19.592,20.058,19.211,19.827,18.98z"/>
</svg>
