<?xml version="1.0" encoding="utf-8"?>
<!-- Generator: Adobe Illustrator 21.1.0, SVG Export Plug-In . SVG Version: 6.00 Build 0)  -->
<svg version="1.1" id="Layer_1" xmlns="http://www.w3.org/2000/svg" xmlns:xlink="http://www.w3.org/1999/xlink" x="0px" y="0px"
	 viewBox="0 0 21.4 21.4" style="enable-background:new 0 0 21.4 21.4;" xml:space="preserve">
<style type="text/css">
	.st0{fill:#009D76;}
</style>
<g>
	<path class="st0" d="M10.7,0C4.8,0,0,4.8,0,10.7s4.8,10.7,10.7,10.7s10.7-4.8,10.7-10.7S16.6,0,10.7,0z M10.7,20.4
		C5.3,20.4,1,16,1,10.7S5.4,1,10.7,1s9.7,4.4,9.7,9.7C20.4,16.1,16.1,20.4,10.7,20.4z"/>
	<path class="st0" d="M15.4,6.7l-6.2,6.5l-2.7-2.4c-0.2-0.2-0.5-0.2-0.7,0s-0.2,0.5,0,0.7l3,2.8l0.1,0.1l0,0c0.1,0,0.1,0,0.2,0
		c0.1,0,0.1,0,0.2,0c0,0,0,0,0.1,0c0,0,0.1,0,0.1-0.1l6.6-6.9c0.2-0.2,0.2-0.5,0-0.7C15.9,6.5,15.6,6.5,15.4,6.7z"/>
</g>
</svg>
