<?xml version="1.0" encoding="UTF-8"?>
<svg width="18px" height="15px" viewBox="0 0 18 15" version="1.1" xmlns="http://www.w3.org/2000/svg" xmlns:xlink="http://www.w3.org/1999/xlink">
    <!-- Generator: Sketch 46.2 (44496) - http://www.bohemiancoding.com/sketch -->
    <title>twitter-logo-silhouette-2</title>
    <desc>Created with Sketch.</desc>
    <defs></defs>
    <g id="Symbols" stroke="none" stroke-width="1" fill="none" fill-rule="evenodd">
        <g id="Footer" transform="translate(-1181.000000, -759.000000)" fill-rule="nonzero" fill="#FFFFFF">
            <g id="Middle">
                <g transform="translate(215.000000, 568.000000)">
                    <g id="Social" transform="translate(900.000000, 141.000000)">
                        <g id="twitter-logo-silhouette-2" transform="translate(66.000000, 50.000000)">
                            <path d="M18,1.77473603 C17.3374989,2.07590134 16.6266448,2.28014821 15.8797612,2.37133362 C16.6423801,1.90282407 17.2261458,1.1597022 17.5028227,0.276935704 C16.7874686,0.710805662 15.9978497,1.02585095 15.1564954,1.19663501 C14.482759,0.45927635 13.5244339,0 12.461491,0 C10.4222523,0 8.76880845,1.69628399 8.76880845,3.78721192 C8.76880845,4.08376063 8.80142615,4.37339953 8.86442625,4.65036541 C5.79600947,4.49225437 3.07515208,2.98407424 1.2541197,0.692339259 C0.935795647,1.25085744 0.754707116,1.90164729 0.754707116,2.59634011 C0.754707116,3.91068336 1.40709053,5.07038556 2.39691568,5.74887502 C1.79176763,5.7281154 1.22261964,5.55733134 0.724354125,5.27345565 L0.724354125,5.32076827 C0.724354125,7.15552011 1.99762091,8.68678325 3.68591779,9.03529135 C3.37659375,9.12068338 3.05041675,9.16799599 2.71297502,9.16799599 C2.47453346,9.16799599 2.24394484,9.14376638 2.01785624,9.09760037 C2.48800407,10.6034873 3.851271,11.6985571 5.46647952,11.7285801 C4.2033304,12.7440512 2.61062191,13.3475586 0.880707321,13.3475586 C0.582648011,13.3475586 0.289059296,13.3290922 0,13.2956294 C1.6343262,14.372263 3.57459408,15 5.65995042,15 C12.4525498,15 16.165497,9.2280118 16.165497,4.22225865 L16.1531146,3.73184288 C16.8785864,3.20099413 17.5062051,2.53403109 18,1.77473603 Z" id="Shape"></path>
                        </g>
                    </g>
                </g>
            </g>
        </g>
    </g>
</svg>