<?xml version="1.0" encoding="utf-8"?>
<!-- Generator: Adobe Illustrator 16.0.0, SVG Export Plug-In . SVG Version: 6.00 Build 0)  -->
<!DOCTYPE svg PUBLIC "-//W3C//DTD SVG 1.1//EN" "http://www.w3.org/Graphics/SVG/1.1/DTD/svg11.dtd">
<svg version="1.1" id="Layer_1" xmlns="http://www.w3.org/2000/svg" xmlns:xlink="http://www.w3.org/1999/xlink" x="0px" y="0px"
	 width="72px" height="72px" viewBox="0 0 72 72" enable-background="new 0 0 72 72" xml:space="preserve">
<g>
	<path fill="#FFFFFF" d="M36,0C16.149,0,0,16.149,0,36c0,19.852,16.149,36,36,36c19.852,0,36-16.148,36-36C72,16.149,55.852,0,36,0z
		 M36,70C17.252,70,2,54.748,2,36S17.252,2,36,2s34,15.252,34,34S54.748,70,36,70z"/>
	<path fill="#FFFFFF" d="M47.342,38.738c0.184-2.404-0.551-4.414-1.667-4.511l-0.041-0.003c-0.053-2.033-0.711-4.051-1.938-5.779
		C41.721,25.661,38.539,24,35.188,24c-3.353,0-6.533,1.661-8.51,4.445c-1.228,1.729-1.886,3.749-1.938,5.783l-0.041,0.003
		c-1.135,0.099-1.879,2.172-1.661,4.628c0.217,2.459,1.313,4.371,2.448,4.271l3.704-0.322c0.313-0.026,0.601-0.178,0.802-0.414
		c0.202-0.24,0.3-0.547,0.272-0.858l-0.58-6.561c-0.058-0.646-0.631-1.124-1.281-1.067l-0.979,0.086
		c0.088-1.407,0.566-2.791,1.438-4.019c1.498-2.11,3.804-3.32,6.325-3.32s4.827,1.21,6.324,3.32
		c0.872,1.227,1.351,2.609,1.438,4.015l-0.979-0.086c-0.65-0.057-1.225,0.421-1.281,1.067l-0.58,6.561
		c-0.026,0.311,0.07,0.618,0.271,0.858c0.201,0.236,0.49,0.387,0.803,0.414l3.703,0.322c0.836,0.072,1.646-0.945,2.104-2.467
		c0.069,0.07,0.141,0.146,0.198,0.23c0.313,0.475,0.363,1.067,0.137,1.588l-1.176,2.688c-0.357,0.815-1.168,1.344-2.063,1.344
		h-1.583c-0.129-0.413-0.503-0.72-0.961-0.72h-2.934c-0.563,0-1.021,0.454-1.021,1.016v1.18c0,0.56,0.457,1.014,1.021,1.014h2.934
		c0.458,0,0.832-0.307,0.961-0.719h1.583c1.604,0,3.058-0.946,3.696-2.408l1.177-2.688c0.467-1.069,0.362-2.289-0.28-3.265
		C48.341,39.407,47.876,39.006,47.342,38.738z"/>
</g>
</svg>
