<?xml version="1.0" encoding="utf-8"?>
<!-- Generator: Adobe Illustrator 16.0.0, SVG Export Plug-In . SVG Version: 6.00 Build 0)  -->
<!DOCTYPE svg PUBLIC "-//W3C//DTD SVG 1.1//EN" "http://www.w3.org/Graphics/SVG/1.1/DTD/svg11.dtd">
<svg version="1.1" id="Layer_1" xmlns="http://www.w3.org/2000/svg" xmlns:xlink="http://www.w3.org/1999/xlink" x="0px" y="0px"
	 width="72px" height="72px" viewBox="0 0 72 72" enable-background="new 0 0 72 72" xml:space="preserve">
<g>
	<path fill="#FFFFFF" d="M36,0C16.149,0,0,16.149,0,36c0,19.852,16.149,36,36,36c19.852,0,36-16.148,36-36C72,16.149,55.852,0,36,0z
		 M36,70C17.252,70,2,54.748,2,36S17.252,2,36,2s34,15.252,34,34S54.748,70,36,70z"/>
	<path fill="#FFFFFF" d="M48.117,34.497c-1.146,0-2.161-0.673-2.588-1.713c-0.437-1.066-0.154-2.308,0.699-3.091
		c0.269-0.246,0.301-0.657,0.076-0.943c-0.588-0.744-1.254-1.417-1.98-2c-0.285-0.228-0.703-0.197-0.95,0.077
		c-0.745,0.825-2.083,1.132-3.117,0.7c-1.077-0.452-1.755-1.543-1.688-2.714c0.021-0.367-0.246-0.687-0.613-0.73
		c-0.934-0.108-1.875-0.111-2.812-0.007c-0.362,0.04-0.631,0.352-0.619,0.715c0.041,1.159-0.646,2.231-1.712,2.667
		c-1.021,0.417-2.351,0.113-3.094-0.704c-0.246-0.27-0.657-0.303-0.943-0.08c-0.749,0.588-1.431,1.261-2.022,1.999
		c-0.23,0.287-0.197,0.704,0.074,0.95c0.87,0.788,1.151,2.042,0.699,3.119c-0.432,1.028-1.498,1.69-2.72,1.69
		c-0.396-0.013-0.679,0.253-0.722,0.614c-0.11,0.939-0.111,1.896-0.006,2.843c0.039,0.354,0.462,0.614,0.819,0.614
		c1.089-0.028,2.134,0.646,2.572,1.713c0.438,1.065,0.156,2.308-0.699,3.091c-0.267,0.246-0.301,0.656-0.075,0.942
		c0.58,0.739,1.247,1.413,1.978,2.001c0.286,0.23,0.702,0.198,0.951-0.076c0.748-0.826,2.086-1.133,3.116-0.701
		c1.079,0.452,1.758,1.543,1.691,2.713c-0.022,0.369,0.248,0.688,0.613,0.73C35.522,48.973,36.003,49,36.484,49
		c0.458,0,0.915-0.025,1.372-0.076c0.363-0.04,0.633-0.352,0.619-0.716c-0.041-1.158,0.646-2.229,1.711-2.665
		c1.028-0.421,2.353-0.113,3.096,0.704c0.248,0.269,0.656,0.301,0.943,0.079c0.748-0.588,1.428-1.26,2.021-2
		c0.23-0.286,0.197-0.703-0.074-0.95c-0.87-0.787-1.152-2.041-0.699-3.118c0.424-1.014,1.451-1.693,2.557-1.693l0.154,0.004
		c0.357,0.029,0.688-0.248,0.731-0.612c0.108-0.94,0.11-1.896,0.005-2.843C48.882,34.761,48.473,34.497,48.117,34.497z
		 M36.52,40.695c-2.298,0-4.169-1.869-4.169-4.17c0-2.298,1.871-4.168,4.169-4.168c2.299,0,4.17,1.87,4.17,4.168
		C40.688,38.826,38.818,40.695,36.52,40.695z"/>
</g>
</svg>
