<?xml version="1.0" encoding="utf-8"?>
<!-- Generator: Adobe Illustrator 16.0.0, SVG Export Plug-In . SVG Version: 6.00 Build 0)  -->
<!DOCTYPE svg PUBLIC "-//W3C//DTD SVG 1.1//EN" "http://www.w3.org/Graphics/SVG/1.1/DTD/svg11.dtd">
<svg version="1.1" id="Layer_1" xmlns="http://www.w3.org/2000/svg" xmlns:xlink="http://www.w3.org/1999/xlink" x="0px" y="0px"
	 width="72px" height="72px" viewBox="0 0 72 72" enable-background="new 0 0 72 72" xml:space="preserve">
<g>
	<path fill="#FFFFFF" d="M36,0C16.149,0,0,16.149,0,36c0,19.852,16.149,36,36,36c19.852,0,36-16.148,36-36C72,16.149,55.852,0,36,0z
		 M36,70C17.252,70,2,54.748,2,36S17.252,2,36,2s34,15.252,34,34S54.748,70,36,70z"/>
	<path fill="#FFFFFF" d="M48.557,29.586c-0.209-0.076-0.445-0.024-0.604,0.134l-3.238,3.231l-3.59-1.134l-1.137-3.583l3.238-3.231
		c0.157-0.158,0.209-0.393,0.133-0.603s-0.269-0.356-0.49-0.375c-1.967-0.169-3.895,0.531-5.287,1.922
		c-1.908,1.904-2.413,4.685-1.519,7.055c-0.098,0.082-0.194,0.169-0.289,0.263l-10.81,10.178c-0.004,0.004-0.008,0.008-0.012,0.012
		c-1.271,1.268-1.271,3.333,0,4.602c1.271,1.27,3.325,1.252,4.596-0.016c0.006-0.005,0.011-0.01,0.016-0.016l10.11-10.873
		c0.094-0.092,0.178-0.188,0.26-0.287c2.375,0.896,5.164,0.392,7.072-1.514c1.395-1.39,2.096-3.313,1.926-5.276
		C48.914,29.854,48.768,29.663,48.557,29.586z M27.92,46.686c-0.468,0.467-1.227,0.467-1.695,0c-0.468-0.467-0.468-1.225,0-1.69
		c0.469-0.468,1.228-0.468,1.695,0C28.389,45.461,28.389,46.219,27.92,46.686z"/>
</g>
</svg>
