<?xml version="1.0" encoding="utf-8"?>
<!-- Generator: Adobe Illustrator 21.1.0, SVG Export Plug-In . SVG Version: 6.00 Build 0)  -->
<svg version="1.1" id="Layer_1" xmlns="http://www.w3.org/2000/svg" xmlns:xlink="http://www.w3.org/1999/xlink" x="0px" y="0px"
	 viewBox="0 0 33.8 33.8" style="enable-background:new 0 0 33.8 33.8;" xml:space="preserve">
<style type="text/css">
	.st0{fill:#FFFFFF;}
</style>
<g>
	<path class="st0" d="M16.9,0C7.6,0,0,7.6,0,16.9s7.6,16.9,16.9,16.9c9.3,0,16.9-7.6,16.9-16.9S26.2,0,16.9,0z M16.9,31.8
		C8.7,31.8,2,25.1,2,16.9S8.7,2,16.9,2c8.2,0,14.9,6.7,14.9,14.9S25.1,31.8,16.9,31.8z"/>
	<path class="st0" d="M23,11.6l-8.7,8.5l-3.6-3.6c-0.4-0.4-1-0.4-1.4,0c-0.4,0.4-0.4,1,0,1.4l4.3,4.3l0,0c0.1,0.1,0.1,0.1,0.2,0.1
		c0,0,0.1,0.1,0.1,0.1c0.1,0,0.3,0.1,0.4,0.1c0.1,0,0.3,0,0.4-0.1c0,0,0.1,0,0.1-0.1c0.1,0,0.2-0.1,0.2-0.1l9.4-9.2
		c0.4-0.4,0.4-1,0-1.4C24.1,11.2,23.4,11.2,23,11.6z"/>
</g>
</svg>
