<?xml version="1.0" encoding="utf-8"?>
<!-- Generator: Adobe Illustrator 19.2.1, SVG Export Plug-In . SVG Version: 6.00 Build 0)  -->
<svg version="1.1" id="Layer_1" xmlns="http://www.w3.org/2000/svg" xmlns:xlink="http://www.w3.org/1999/xlink" x="0px" y="0px"
	 viewBox="0 0 26.9 26.7" style="enable-background:new 0 0 26.9 26.7;" xml:space="preserve">
<style type="text/css">
	.st0{clip-path:url(#SVGID_2_);}
	.st1{clip-path:url(#SVGID_4_);}
	.st2{fill:#FFFFFF;}
</style>
<title>Contact</title>
<g>
	<defs>
		<path id="SVGID_1_" d="M15.9,13.4l-3.5,1.9c-0.3,0.1-0.6,0-0.7-0.2c0-0.1-0.1-0.2-0.1-0.2V11c0-0.3,0.3-0.5,0.6-0.5
			c0.1,0,0.2,0,0.2,0.1l3.5,1.8c0.3,0.1,0.4,0.5,0.3,0.7C16.1,13.2,16,13.3,15.9,13.4z M21.3,8c-0.6-0.7-1.7-1-3.9-1H9.5
			c-2.2,0-3.3,0.3-4,1.1S5,10,5,11.5v2.9c0,3,0.7,4.5,4.5,4.5h7.8c1.9,0,2.9-0.3,3.6-0.9s1-1.7,1-3.6v-2.9C21.9,9.9,21.9,8.8,21.3,8
			L21.3,8z"/>
	</defs>
	<clipPath id="SVGID_2_">
		<use xlink:href="#SVGID_1_"  style="overflow:visible;"/>
	</clipPath>
	<g class="st0">
		<g>
			<defs>
				<rect id="SVGID_3_" x="-751" y="-453" width="1542" height="505"/>
			</defs>
			<clipPath id="SVGID_4_">
				<use xlink:href="#SVGID_3_"  style="overflow:visible;"/>
			</clipPath>
			<g class="st1">
				<rect y="5" class="st2" width="26.9" height="21.9"/>
			</g>
		</g>
	</g>
</g>
</svg>
